<?xml version="1.0" encoding="utf-8" standalone="no"?>
<!DOCTYPE svg PUBLIC "-//W3C//DTD SVG 1.1//EN"
  "http://www.w3.org/Graphics/SVG/1.1/DTD/svg11.dtd">
<svg xmlns:xlink="http://www.w3.org/1999/xlink" width="1152pt" height="648pt" viewBox="0 0 1152 648" xmlns="http://www.w3.org/2000/svg" version="1.1">
 <metadata>
  <rdf:RDF xmlns:dc="http://purl.org/dc/elements/1.1/" xmlns:cc="http://creativecommons.org/ns#" xmlns:rdf="http://www.w3.org/1999/02/22-rdf-syntax-ns#">
   <cc:Work>
    <dc:type rdf:resource="http://purl.org/dc/dcmitype/StillImage"/>
    <dc:date>2023-03-11T01:45:07.918936</dc:date>
    <dc:format>image/svg+xml</dc:format>
    <dc:creator>
     <cc:Agent>
      <dc:title>Matplotlib v3.7.1, https://matplotlib.org/</dc:title>
     </cc:Agent>
    </dc:creator>
   </cc:Work>
  </rdf:RDF>
 </metadata>
 <defs>
  <style type="text/css">*{stroke-linejoin: round; stroke-linecap: butt}</style>
 </defs>
 <g id="figure_1">
  <g id="patch_1">
   <path d="M 0 648 
L 1152 648 
L 1152 0 
L 0 0 
z
" style="fill: #ffffff"/>
  </g>
  <g id="axes_1">
   <g id="patch_2">
    <path d="M 144 576.72 
L 1036.8 576.72 
L 1036.8 77.76 
L 144 77.76 
z
" style="fill: #ffffff"/>
   </g>
   <g id="table_1">
    <g id="patch_3">
     <path d="M 161.856 446.7408 
L 251.136 446.7408 
L 251.136 434.7408 
L 161.856 434.7408 
z
" style="fill: #ffffff; stroke: #000000; stroke-linejoin: miter"/>
    </g>
    <g id="text_1">
     <!-- $Ширина \ щели \ [мм]$ -->
     <g transform="translate(171.286 442.6658) scale(0.07 -0.07)">
      <defs>
       <path id="DejaVuSans-Oblique-428" d="M 3388 531 
L 5234 531 
L 6038 4666 
L 6669 4666 
L 5763 0 
L 175 0 
L 1081 4666 
L 1713 4666 
L 909 531 
L 2756 531 
L 3559 4666 
L 4191 4666 
L 3388 531 
z
" transform="scale(0.015625)"/>
       <path id="DejaVuSans-Oblique-438" d="M 3919 3500 
L 3238 0 
L 2666 0 
L 3213 2809 
L 978 0 
L 241 0 
L 922 3500 
L 1494 3500 
L 947 697 
L 3178 3500 
L 3919 3500 
z
" transform="scale(0.015625)"/>
       <path id="DejaVuSans-Oblique-440" d="M 3175 2156 
Q 3175 2616 2975 2859 
Q 2775 3103 2400 3103 
Q 2144 3103 1911 2972 
Q 1678 2841 1497 2591 
Q 1319 2344 1212 1994 
Q 1106 1644 1106 1300 
Q 1106 863 1306 627 
Q 1506 391 1875 391 
Q 2147 391 2380 519 
Q 2613 647 2778 891 
Q 2956 1147 3065 1494 
Q 3175 1841 3175 2156 
z
M 1394 2969 
Q 1625 3272 1939 3428 
Q 2253 3584 2638 3584 
Q 3175 3584 3472 3232 
Q 3769 2881 3769 2247 
Q 3769 1728 3584 1258 
Q 3400 788 3053 416 
Q 2822 169 2531 39 
Q 2241 -91 1919 -91 
Q 1547 -91 1294 64 
Q 1041 219 916 525 
L 556 -1331 
L -19 -1331 
L 922 3500 
L 1497 3500 
L 1394 2969 
z
" transform="scale(0.015625)"/>
       <path id="DejaVuSans-Oblique-43d" d="M 922 3500 
L 1500 3500 
L 1222 2072 
L 3088 2072 
L 3366 3500 
L 3944 3500 
L 3263 0 
L 2684 0 
L 2997 1613 
L 1131 1613 
L 819 0 
L 241 0 
L 922 3500 
z
" transform="scale(0.015625)"/>
       <path id="DejaVuSans-Oblique-430" d="M 3438 1997 
L 3047 0 
L 2472 0 
L 2578 531 
Q 2325 219 2001 64 
Q 1678 -91 1281 -91 
Q 834 -91 548 182 
Q 263 456 263 884 
Q 263 1497 752 1853 
Q 1241 2209 2100 2209 
L 2900 2209 
L 2931 2363 
Q 2938 2388 2941 2417 
Q 2944 2447 2944 2509 
Q 2944 2788 2717 2942 
Q 2491 3097 2081 3097 
Q 1800 3097 1504 3025 
Q 1209 2953 897 2809 
L 997 3341 
Q 1322 3463 1633 3523 
Q 1944 3584 2234 3584 
Q 2853 3584 3176 3315 
Q 3500 3047 3500 2534 
Q 3500 2431 3484 2292 
Q 3469 2153 3438 1997 
z
M 2816 1759 
L 2241 1759 
Q 1534 1759 1195 1570 
Q 856 1381 856 984 
Q 856 709 1029 553 
Q 1203 397 1509 397 
Q 1978 397 2328 733 
Q 2678 1069 2791 1631 
L 2816 1759 
z
" transform="scale(0.015625)"/>
       <path id="DejaVuSans-Oblique-449" d="M 5022 0 
L 328 0 
L 1006 3500 
L 1584 3500 
L 994 459 
L 2472 459 
L 3063 3500 
L 3641 3500 
L 3050 459 
L 4531 459 
L 5122 3500 
L 5700 3500 
L 5109 459 
L 5569 459 
L 5309 -884 
L 4850 -884 
L 5022 0 
z
" transform="scale(0.015625)"/>
       <path id="DejaVuSans-Oblique-435" d="M 3078 2063 
Q 3088 2113 3092 2166 
Q 3097 2219 3097 2272 
Q 3097 2653 2873 2875 
Q 2650 3097 2266 3097 
Q 1838 3097 1509 2826 
Q 1181 2556 1013 2059 
L 3078 2063 
z
M 3578 1613 
L 903 1613 
Q 884 1494 878 1425 
Q 872 1356 872 1306 
Q 872 872 1139 634 
Q 1406 397 1894 397 
Q 2269 397 2603 481 
Q 2938 566 3225 728 
L 3116 159 
Q 2806 34 2476 -28 
Q 2147 -91 1806 -91 
Q 1078 -91 686 257 
Q 294 606 294 1247 
Q 294 1794 489 2264 
Q 684 2734 1063 3103 
Q 1306 3334 1642 3459 
Q 1978 3584 2356 3584 
Q 2950 3584 3301 3228 
Q 3653 2872 3653 2272 
Q 3653 2128 3634 1964 
Q 3616 1800 3578 1613 
z
" transform="scale(0.015625)"/>
       <path id="DejaVuSans-Oblique-43b" d="M 1534 3500 
L 3900 3500 
L 3219 0 
L 2644 0 
L 3234 3041 
L 2019 3041 
L 1953 2694 
Q 1691 1344 1284 717 
Q 878 91 -103 0 
L -9 478 
Q 575 566 828 959 
Q 1147 1513 1422 2928 
L 1534 3500 
z
" transform="scale(0.015625)"/>
       <path id="DejaVuSans-5b" d="M 550 4863 
L 1875 4863 
L 1875 4416 
L 1125 4416 
L 1125 -397 
L 1875 -397 
L 1875 -844 
L 550 -844 
L 550 4863 
z
" transform="scale(0.015625)"/>
       <path id="DejaVuSans-Oblique-43c" d="M 922 3500 
L 1763 3500 
L 2300 1156 
L 3753 3500 
L 4588 3500 
L 3906 0 
L 3328 0 
L 3903 2950 
L 2494 672 
L 1919 672 
L 1394 2950 
L 819 0 
L 241 0 
L 922 3500 
z
" transform="scale(0.015625)"/>
       <path id="DejaVuSans-5d" d="M 1947 4863 
L 1947 -844 
L 622 -844 
L 622 -397 
L 1369 -397 
L 1369 4416 
L 622 4416 
L 622 4863 
L 1947 4863 
z
" transform="scale(0.015625)"/>
      </defs>
      <use xlink:href="#DejaVuSans-Oblique-428" transform="translate(0 0.015625)"/>
      <use xlink:href="#DejaVuSans-Oblique-438" transform="translate(106.933594 0.015625)"/>
      <use xlink:href="#DejaVuSans-Oblique-440" transform="translate(171.923828 0.015625)"/>
      <use xlink:href="#DejaVuSans-Oblique-438" transform="translate(235.400391 0.015625)"/>
      <use xlink:href="#DejaVuSans-Oblique-43d" transform="translate(300.390625 0.015625)"/>
      <use xlink:href="#DejaVuSans-Oblique-430" transform="translate(365.771484 0.015625)"/>
      <use xlink:href="#DejaVuSans-Oblique-449" transform="translate(459.52116 0.015625)"/>
      <use xlink:href="#DejaVuSans-Oblique-435" transform="translate(553.710613 0.015625)"/>
      <use xlink:href="#DejaVuSans-Oblique-43b" transform="translate(615.23405 0.015625)"/>
      <use xlink:href="#DejaVuSans-Oblique-438" transform="translate(679.150066 0.015625)"/>
      <use xlink:href="#DejaVuSans-5b" transform="translate(776.610679 0.015625)"/>
      <use xlink:href="#DejaVuSans-Oblique-43c" transform="translate(815.624351 0.015625)"/>
      <use xlink:href="#DejaVuSans-Oblique-43c" transform="translate(891.063804 0.015625)"/>
      <use xlink:href="#DejaVuSans-5d" transform="translate(966.503257 0.015625)"/>
     </g>
    </g>
    <g id="patch_4">
     <path d="M 251.136 446.7408 
L 340.416 446.7408 
L 340.416 434.7408 
L 251.136 434.7408 
z
" style="fill: #ffffff; stroke: #000000; stroke-linejoin: miter"/>
    </g>
    <g id="text_2">
     <!-- $Сила \ тока$ -->
     <g transform="translate(277.086 442.672363) scale(0.07 -0.07)">
      <defs>
       <path id="DejaVuSans-Oblique-421" d="M 4447 4306 
L 4319 3641 
Q 4019 3944 3683 4091 
Q 3347 4238 2956 4238 
Q 2422 4238 2017 3981 
Q 1613 3725 1319 3200 
Q 1131 2863 1032 2486 
Q 934 2109 934 1728 
Q 934 1091 1264 756 
Q 1594 422 2222 422 
Q 2656 422 3056 561 
Q 3456 700 3834 978 
L 3688 231 
Q 3316 72 2936 -9 
Q 2556 -91 2175 -91 
Q 1278 -91 773 396 
Q 269 884 269 1753 
Q 269 2309 461 2846 
Q 653 3384 1013 3828 
Q 1394 4300 1883 4525 
Q 2372 4750 3022 4750 
Q 3422 4750 3780 4639 
Q 4138 4528 4447 4306 
z
" transform="scale(0.015625)"/>
       <path id="DejaVuSans-Oblique-442" d="M 528 3500 
L 3881 3500 
L 3791 3041 
L 2397 3041 
L 1806 0 
L 1241 0 
L 1831 3041 
L 438 3041 
L 528 3500 
z
" transform="scale(0.015625)"/>
       <path id="DejaVuSans-Oblique-43e" d="M 1625 -91 
Q 1009 -91 651 289 
Q 294 669 294 1325 
Q 294 1706 417 2101 
Q 541 2497 738 2766 
Q 1047 3184 1428 3384 
Q 1809 3584 2291 3584 
Q 2888 3584 3255 3212 
Q 3622 2841 3622 2241 
Q 3622 1825 3500 1412 
Q 3378 1000 3181 728 
Q 2875 309 2494 109 
Q 2113 -91 1625 -91 
z
M 891 1344 
Q 891 869 1089 633 
Q 1288 397 1691 397 
Q 2269 397 2648 901 
Q 3028 1406 3028 2181 
Q 3028 2634 2825 2865 
Q 2622 3097 2228 3097 
Q 1903 3097 1650 2945 
Q 1397 2794 1197 2484 
Q 1050 2253 970 1956 
Q 891 1659 891 1344 
z
" transform="scale(0.015625)"/>
       <path id="DejaVuSans-Oblique-43a" d="M 922 3500 
L 1494 3500 
L 1175 1856 
L 3116 3500 
L 3822 3500 
L 2222 2147 
L 3313 0 
L 2669 0 
L 1772 1766 
L 1034 1141 
L 813 0 
L 241 0 
L 922 3500 
z
" transform="scale(0.015625)"/>
      </defs>
      <use xlink:href="#DejaVuSans-Oblique-421" transform="translate(0 0.78125)"/>
      <use xlink:href="#DejaVuSans-Oblique-438" transform="translate(69.824219 0.78125)"/>
      <use xlink:href="#DejaVuSans-Oblique-43b" transform="translate(134.814453 0.78125)"/>
      <use xlink:href="#DejaVuSans-Oblique-430" transform="translate(198.730469 0.78125)"/>
      <use xlink:href="#DejaVuSans-Oblique-442" transform="translate(292.480144 0.78125)"/>
      <use xlink:href="#DejaVuSans-Oblique-43e" transform="translate(350.732097 0.78125)"/>
      <use xlink:href="#DejaVuSans-Oblique-43a" transform="translate(411.913738 0.78125)"/>
      <use xlink:href="#DejaVuSans-Oblique-430" transform="translate(472.314128 0.78125)"/>
     </g>
    </g>
    <g id="patch_5">
     <path d="M 161.856 458.7408 
L 251.136 458.7408 
L 251.136 446.7408 
L 161.856 446.7408 
z
" style="fill: #ffffff; stroke: #000000; stroke-linejoin: miter"/>
    </g>
    <g id="text_3">
     <!-- 0.0 -->
     <g transform="translate(231.075812 454.672363) scale(0.07 -0.07)">
      <defs>
       <path id="DejaVuSans-30" d="M 2034 4250 
Q 1547 4250 1301 3770 
Q 1056 3291 1056 2328 
Q 1056 1369 1301 889 
Q 1547 409 2034 409 
Q 2525 409 2770 889 
Q 3016 1369 3016 2328 
Q 3016 3291 2770 3770 
Q 2525 4250 2034 4250 
z
M 2034 4750 
Q 2819 4750 3233 4129 
Q 3647 3509 3647 2328 
Q 3647 1150 3233 529 
Q 2819 -91 2034 -91 
Q 1250 -91 836 529 
Q 422 1150 422 2328 
Q 422 3509 836 4129 
Q 1250 4750 2034 4750 
z
" transform="scale(0.015625)"/>
       <path id="DejaVuSans-2e" d="M 684 794 
L 1344 794 
L 1344 0 
L 684 0 
L 684 794 
z
" transform="scale(0.015625)"/>
      </defs>
      <use xlink:href="#DejaVuSans-30"/>
      <use xlink:href="#DejaVuSans-2e" x="63.623047"/>
      <use xlink:href="#DejaVuSans-30" x="95.410156"/>
     </g>
    </g>
    <g id="patch_6">
     <path d="M 251.136 458.7408 
L 340.416 458.7408 
L 340.416 446.7408 
L 251.136 446.7408 
z
" style="fill: #ffffff; stroke: #000000; stroke-linejoin: miter"/>
    </g>
    <g id="text_4">
     <!-- 100.0 -->
     <g transform="translate(311.448313 454.672363) scale(0.07 -0.07)">
      <defs>
       <path id="DejaVuSans-31" d="M 794 531 
L 1825 531 
L 1825 4091 
L 703 3866 
L 703 4441 
L 1819 4666 
L 2450 4666 
L 2450 531 
L 3481 531 
L 3481 0 
L 794 0 
L 794 531 
z
" transform="scale(0.015625)"/>
      </defs>
      <use xlink:href="#DejaVuSans-31"/>
      <use xlink:href="#DejaVuSans-30" x="63.623047"/>
      <use xlink:href="#DejaVuSans-30" x="127.246094"/>
      <use xlink:href="#DejaVuSans-2e" x="190.869141"/>
      <use xlink:href="#DejaVuSans-30" x="222.65625"/>
     </g>
    </g>
    <g id="patch_7">
     <path d="M 161.856 470.7408 
L 251.136 470.7408 
L 251.136 458.7408 
L 161.856 458.7408 
z
" style="fill: #ffffff; stroke: #000000; stroke-linejoin: miter"/>
    </g>
    <g id="text_5">
     <!-- 0.29 -->
     <g transform="translate(226.622062 466.672363) scale(0.07 -0.07)">
      <defs>
       <path id="DejaVuSans-32" d="M 1228 531 
L 3431 531 
L 3431 0 
L 469 0 
L 469 531 
Q 828 903 1448 1529 
Q 2069 2156 2228 2338 
Q 2531 2678 2651 2914 
Q 2772 3150 2772 3378 
Q 2772 3750 2511 3984 
Q 2250 4219 1831 4219 
Q 1534 4219 1204 4116 
Q 875 4013 500 3803 
L 500 4441 
Q 881 4594 1212 4672 
Q 1544 4750 1819 4750 
Q 2544 4750 2975 4387 
Q 3406 4025 3406 3419 
Q 3406 3131 3298 2873 
Q 3191 2616 2906 2266 
Q 2828 2175 2409 1742 
Q 1991 1309 1228 531 
z
" transform="scale(0.015625)"/>
       <path id="DejaVuSans-39" d="M 703 97 
L 703 672 
Q 941 559 1184 500 
Q 1428 441 1663 441 
Q 2288 441 2617 861 
Q 2947 1281 2994 2138 
Q 2813 1869 2534 1725 
Q 2256 1581 1919 1581 
Q 1219 1581 811 2004 
Q 403 2428 403 3163 
Q 403 3881 828 4315 
Q 1253 4750 1959 4750 
Q 2769 4750 3195 4129 
Q 3622 3509 3622 2328 
Q 3622 1225 3098 567 
Q 2575 -91 1691 -91 
Q 1453 -91 1209 -44 
Q 966 3 703 97 
z
M 1959 2075 
Q 2384 2075 2632 2365 
Q 2881 2656 2881 3163 
Q 2881 3666 2632 3958 
Q 2384 4250 1959 4250 
Q 1534 4250 1286 3958 
Q 1038 3666 1038 3163 
Q 1038 2656 1286 2365 
Q 1534 2075 1959 2075 
z
" transform="scale(0.015625)"/>
      </defs>
      <use xlink:href="#DejaVuSans-30"/>
      <use xlink:href="#DejaVuSans-2e" x="63.623047"/>
      <use xlink:href="#DejaVuSans-32" x="95.410156"/>
      <use xlink:href="#DejaVuSans-39" x="159.033203"/>
     </g>
    </g>
    <g id="patch_8">
     <path d="M 251.136 470.7408 
L 340.416 470.7408 
L 340.416 458.7408 
L 251.136 458.7408 
z
" style="fill: #ffffff; stroke: #000000; stroke-linejoin: miter"/>
    </g>
    <g id="text_6">
     <!-- 90.0 -->
     <g transform="translate(315.902063 466.672363) scale(0.07 -0.07)">
      <use xlink:href="#DejaVuSans-39"/>
      <use xlink:href="#DejaVuSans-30" x="63.623047"/>
      <use xlink:href="#DejaVuSans-2e" x="127.246094"/>
      <use xlink:href="#DejaVuSans-30" x="159.033203"/>
     </g>
    </g>
    <g id="patch_9">
     <path d="M 161.856 482.7408 
L 251.136 482.7408 
L 251.136 470.7408 
L 161.856 470.7408 
z
" style="fill: #ffffff; stroke: #000000; stroke-linejoin: miter"/>
    </g>
    <g id="text_7">
     <!-- 0.54 -->
     <g transform="translate(226.622062 478.672363) scale(0.07 -0.07)">
      <defs>
       <path id="DejaVuSans-35" d="M 691 4666 
L 3169 4666 
L 3169 4134 
L 1269 4134 
L 1269 2991 
Q 1406 3038 1543 3061 
Q 1681 3084 1819 3084 
Q 2600 3084 3056 2656 
Q 3513 2228 3513 1497 
Q 3513 744 3044 326 
Q 2575 -91 1722 -91 
Q 1428 -91 1123 -41 
Q 819 9 494 109 
L 494 744 
Q 775 591 1075 516 
Q 1375 441 1709 441 
Q 2250 441 2565 725 
Q 2881 1009 2881 1497 
Q 2881 1984 2565 2268 
Q 2250 2553 1709 2553 
Q 1456 2553 1204 2497 
Q 953 2441 691 2322 
L 691 4666 
z
" transform="scale(0.015625)"/>
       <path id="DejaVuSans-34" d="M 2419 4116 
L 825 1625 
L 2419 1625 
L 2419 4116 
z
M 2253 4666 
L 3047 4666 
L 3047 1625 
L 3713 1625 
L 3713 1100 
L 3047 1100 
L 3047 0 
L 2419 0 
L 2419 1100 
L 313 1100 
L 313 1709 
L 2253 4666 
z
" transform="scale(0.015625)"/>
      </defs>
      <use xlink:href="#DejaVuSans-30"/>
      <use xlink:href="#DejaVuSans-2e" x="63.623047"/>
      <use xlink:href="#DejaVuSans-35" x="95.410156"/>
      <use xlink:href="#DejaVuSans-34" x="159.033203"/>
     </g>
    </g>
    <g id="patch_10">
     <path d="M 251.136 482.7408 
L 340.416 482.7408 
L 340.416 470.7408 
L 251.136 470.7408 
z
" style="fill: #ffffff; stroke: #000000; stroke-linejoin: miter"/>
    </g>
    <g id="text_8">
     <!-- 80.0 -->
     <g transform="translate(315.902063 478.672363) scale(0.07 -0.07)">
      <defs>
       <path id="DejaVuSans-38" d="M 2034 2216 
Q 1584 2216 1326 1975 
Q 1069 1734 1069 1313 
Q 1069 891 1326 650 
Q 1584 409 2034 409 
Q 2484 409 2743 651 
Q 3003 894 3003 1313 
Q 3003 1734 2745 1975 
Q 2488 2216 2034 2216 
z
M 1403 2484 
Q 997 2584 770 2862 
Q 544 3141 544 3541 
Q 544 4100 942 4425 
Q 1341 4750 2034 4750 
Q 2731 4750 3128 4425 
Q 3525 4100 3525 3541 
Q 3525 3141 3298 2862 
Q 3072 2584 2669 2484 
Q 3125 2378 3379 2068 
Q 3634 1759 3634 1313 
Q 3634 634 3220 271 
Q 2806 -91 2034 -91 
Q 1263 -91 848 271 
Q 434 634 434 1313 
Q 434 1759 690 2068 
Q 947 2378 1403 2484 
z
M 1172 3481 
Q 1172 3119 1398 2916 
Q 1625 2713 2034 2713 
Q 2441 2713 2670 2916 
Q 2900 3119 2900 3481 
Q 2900 3844 2670 4047 
Q 2441 4250 2034 4250 
Q 1625 4250 1398 4047 
Q 1172 3844 1172 3481 
z
" transform="scale(0.015625)"/>
      </defs>
      <use xlink:href="#DejaVuSans-38"/>
      <use xlink:href="#DejaVuSans-30" x="63.623047"/>
      <use xlink:href="#DejaVuSans-2e" x="127.246094"/>
      <use xlink:href="#DejaVuSans-30" x="159.033203"/>
     </g>
    </g>
    <g id="patch_11">
     <path d="M 161.856 494.7408 
L 251.136 494.7408 
L 251.136 482.7408 
L 161.856 482.7408 
z
" style="fill: #ffffff; stroke: #000000; stroke-linejoin: miter"/>
    </g>
    <g id="text_9">
     <!-- 0.81 -->
     <g transform="translate(226.622062 490.672363) scale(0.07 -0.07)">
      <use xlink:href="#DejaVuSans-30"/>
      <use xlink:href="#DejaVuSans-2e" x="63.623047"/>
      <use xlink:href="#DejaVuSans-38" x="95.410156"/>
      <use xlink:href="#DejaVuSans-31" x="159.033203"/>
     </g>
    </g>
    <g id="patch_12">
     <path d="M 251.136 494.7408 
L 340.416 494.7408 
L 340.416 482.7408 
L 251.136 482.7408 
z
" style="fill: #ffffff; stroke: #000000; stroke-linejoin: miter"/>
    </g>
    <g id="text_10">
     <!-- 70.0 -->
     <g transform="translate(315.902063 490.672363) scale(0.07 -0.07)">
      <defs>
       <path id="DejaVuSans-37" d="M 525 4666 
L 3525 4666 
L 3525 4397 
L 1831 0 
L 1172 0 
L 2766 4134 
L 525 4134 
L 525 4666 
z
" transform="scale(0.015625)"/>
      </defs>
      <use xlink:href="#DejaVuSans-37"/>
      <use xlink:href="#DejaVuSans-30" x="63.623047"/>
      <use xlink:href="#DejaVuSans-2e" x="127.246094"/>
      <use xlink:href="#DejaVuSans-30" x="159.033203"/>
     </g>
    </g>
    <g id="patch_13">
     <path d="M 161.856 506.7408 
L 251.136 506.7408 
L 251.136 494.7408 
L 161.856 494.7408 
z
" style="fill: #ffffff; stroke: #000000; stroke-linejoin: miter"/>
    </g>
    <g id="text_11">
     <!-- 1.16 -->
     <g transform="translate(226.622062 502.672363) scale(0.07 -0.07)">
      <defs>
       <path id="DejaVuSans-36" d="M 2113 2584 
Q 1688 2584 1439 2293 
Q 1191 2003 1191 1497 
Q 1191 994 1439 701 
Q 1688 409 2113 409 
Q 2538 409 2786 701 
Q 3034 994 3034 1497 
Q 3034 2003 2786 2293 
Q 2538 2584 2113 2584 
z
M 3366 4563 
L 3366 3988 
Q 3128 4100 2886 4159 
Q 2644 4219 2406 4219 
Q 1781 4219 1451 3797 
Q 1122 3375 1075 2522 
Q 1259 2794 1537 2939 
Q 1816 3084 2150 3084 
Q 2853 3084 3261 2657 
Q 3669 2231 3669 1497 
Q 3669 778 3244 343 
Q 2819 -91 2113 -91 
Q 1303 -91 875 529 
Q 447 1150 447 2328 
Q 447 3434 972 4092 
Q 1497 4750 2381 4750 
Q 2619 4750 2861 4703 
Q 3103 4656 3366 4563 
z
" transform="scale(0.015625)"/>
      </defs>
      <use xlink:href="#DejaVuSans-31"/>
      <use xlink:href="#DejaVuSans-2e" x="63.623047"/>
      <use xlink:href="#DejaVuSans-31" x="95.410156"/>
      <use xlink:href="#DejaVuSans-36" x="159.033203"/>
     </g>
    </g>
    <g id="patch_14">
     <path d="M 251.136 506.7408 
L 340.416 506.7408 
L 340.416 494.7408 
L 251.136 494.7408 
z
" style="fill: #ffffff; stroke: #000000; stroke-linejoin: miter"/>
    </g>
    <g id="text_12">
     <!-- 60.0 -->
     <g transform="translate(315.902063 502.672363) scale(0.07 -0.07)">
      <use xlink:href="#DejaVuSans-36"/>
      <use xlink:href="#DejaVuSans-30" x="63.623047"/>
      <use xlink:href="#DejaVuSans-2e" x="127.246094"/>
      <use xlink:href="#DejaVuSans-30" x="159.033203"/>
     </g>
    </g>
    <g id="patch_15">
     <path d="M 161.856 518.7408 
L 251.136 518.7408 
L 251.136 506.7408 
L 161.856 506.7408 
z
" style="fill: #ffffff; stroke: #000000; stroke-linejoin: miter"/>
    </g>
    <g id="text_13">
     <!-- 2.04 -->
     <g transform="translate(226.622062 514.672362) scale(0.07 -0.07)">
      <use xlink:href="#DejaVuSans-32"/>
      <use xlink:href="#DejaVuSans-2e" x="63.623047"/>
      <use xlink:href="#DejaVuSans-30" x="95.410156"/>
      <use xlink:href="#DejaVuSans-34" x="159.033203"/>
     </g>
    </g>
    <g id="patch_16">
     <path d="M 251.136 518.7408 
L 340.416 518.7408 
L 340.416 506.7408 
L 251.136 506.7408 
z
" style="fill: #ffffff; stroke: #000000; stroke-linejoin: miter"/>
    </g>
    <g id="text_14">
     <!-- 50.0 -->
     <g transform="translate(315.902063 514.672362) scale(0.07 -0.07)">
      <use xlink:href="#DejaVuSans-35"/>
      <use xlink:href="#DejaVuSans-30" x="63.623047"/>
      <use xlink:href="#DejaVuSans-2e" x="127.246094"/>
      <use xlink:href="#DejaVuSans-30" x="159.033203"/>
     </g>
    </g>
    <g id="patch_17">
     <path d="M 161.856 530.7408 
L 251.136 530.7408 
L 251.136 518.7408 
L 161.856 518.7408 
z
" style="fill: #ffffff; stroke: #000000; stroke-linejoin: miter"/>
    </g>
    <g id="text_15">
     <!-- 2.69 -->
     <g transform="translate(226.622062 526.672362) scale(0.07 -0.07)">
      <use xlink:href="#DejaVuSans-32"/>
      <use xlink:href="#DejaVuSans-2e" x="63.623047"/>
      <use xlink:href="#DejaVuSans-36" x="95.410156"/>
      <use xlink:href="#DejaVuSans-39" x="159.033203"/>
     </g>
    </g>
    <g id="patch_18">
     <path d="M 251.136 530.7408 
L 340.416 530.7408 
L 340.416 518.7408 
L 251.136 518.7408 
z
" style="fill: #ffffff; stroke: #000000; stroke-linejoin: miter"/>
    </g>
    <g id="text_16">
     <!-- 40.0 -->
     <g transform="translate(315.902063 526.672362) scale(0.07 -0.07)">
      <use xlink:href="#DejaVuSans-34"/>
      <use xlink:href="#DejaVuSans-30" x="63.623047"/>
      <use xlink:href="#DejaVuSans-2e" x="127.246094"/>
      <use xlink:href="#DejaVuSans-30" x="159.033203"/>
     </g>
    </g>
    <g id="patch_19">
     <path d="M 161.856 542.7408 
L 251.136 542.7408 
L 251.136 530.7408 
L 161.856 530.7408 
z
" style="fill: #ffffff; stroke: #000000; stroke-linejoin: miter"/>
    </g>
    <g id="text_17">
     <!-- 3.14 -->
     <g transform="translate(226.622062 538.672362) scale(0.07 -0.07)">
      <defs>
       <path id="DejaVuSans-33" d="M 2597 2516 
Q 3050 2419 3304 2112 
Q 3559 1806 3559 1356 
Q 3559 666 3084 287 
Q 2609 -91 1734 -91 
Q 1441 -91 1130 -33 
Q 819 25 488 141 
L 488 750 
Q 750 597 1062 519 
Q 1375 441 1716 441 
Q 2309 441 2620 675 
Q 2931 909 2931 1356 
Q 2931 1769 2642 2001 
Q 2353 2234 1838 2234 
L 1294 2234 
L 1294 2753 
L 1863 2753 
Q 2328 2753 2575 2939 
Q 2822 3125 2822 3475 
Q 2822 3834 2567 4026 
Q 2313 4219 1838 4219 
Q 1578 4219 1281 4162 
Q 984 4106 628 3988 
L 628 4550 
Q 988 4650 1302 4700 
Q 1616 4750 1894 4750 
Q 2613 4750 3031 4423 
Q 3450 4097 3450 3541 
Q 3450 3153 3228 2886 
Q 3006 2619 2597 2516 
z
" transform="scale(0.015625)"/>
      </defs>
      <use xlink:href="#DejaVuSans-33"/>
      <use xlink:href="#DejaVuSans-2e" x="63.623047"/>
      <use xlink:href="#DejaVuSans-31" x="95.410156"/>
      <use xlink:href="#DejaVuSans-34" x="159.033203"/>
     </g>
    </g>
    <g id="patch_20">
     <path d="M 251.136 542.7408 
L 340.416 542.7408 
L 340.416 530.7408 
L 251.136 530.7408 
z
" style="fill: #ffffff; stroke: #000000; stroke-linejoin: miter"/>
    </g>
    <g id="text_18">
     <!-- 30.0 -->
     <g transform="translate(315.902063 538.672362) scale(0.07 -0.07)">
      <use xlink:href="#DejaVuSans-33"/>
      <use xlink:href="#DejaVuSans-30" x="63.623047"/>
      <use xlink:href="#DejaVuSans-2e" x="127.246094"/>
      <use xlink:href="#DejaVuSans-30" x="159.033203"/>
     </g>
    </g>
    <g id="patch_21">
     <path d="M 161.856 554.7408 
L 251.136 554.7408 
L 251.136 542.7408 
L 161.856 542.7408 
z
" style="fill: #ffffff; stroke: #000000; stroke-linejoin: miter"/>
    </g>
    <g id="text_19">
     <!-- 3.62 -->
     <g transform="translate(226.622062 550.672362) scale(0.07 -0.07)">
      <use xlink:href="#DejaVuSans-33"/>
      <use xlink:href="#DejaVuSans-2e" x="63.623047"/>
      <use xlink:href="#DejaVuSans-36" x="95.410156"/>
      <use xlink:href="#DejaVuSans-32" x="159.033203"/>
     </g>
    </g>
    <g id="patch_22">
     <path d="M 251.136 554.7408 
L 340.416 554.7408 
L 340.416 542.7408 
L 251.136 542.7408 
z
" style="fill: #ffffff; stroke: #000000; stroke-linejoin: miter"/>
    </g>
    <g id="text_20">
     <!-- 20.0 -->
     <g transform="translate(315.902063 550.672362) scale(0.07 -0.07)">
      <use xlink:href="#DejaVuSans-32"/>
      <use xlink:href="#DejaVuSans-30" x="63.623047"/>
      <use xlink:href="#DejaVuSans-2e" x="127.246094"/>
      <use xlink:href="#DejaVuSans-30" x="159.033203"/>
     </g>
    </g>
    <g id="patch_23">
     <path d="M 161.856 566.7408 
L 251.136 566.7408 
L 251.136 554.7408 
L 161.856 554.7408 
z
" style="fill: #ffffff; stroke: #000000; stroke-linejoin: miter"/>
    </g>
    <g id="text_21">
     <!-- 5.03 -->
     <g transform="translate(226.622062 562.672362) scale(0.07 -0.07)">
      <use xlink:href="#DejaVuSans-35"/>
      <use xlink:href="#DejaVuSans-2e" x="63.623047"/>
      <use xlink:href="#DejaVuSans-30" x="95.410156"/>
      <use xlink:href="#DejaVuSans-33" x="159.033203"/>
     </g>
    </g>
    <g id="patch_24">
     <path d="M 251.136 566.7408 
L 340.416 566.7408 
L 340.416 554.7408 
L 251.136 554.7408 
z
" style="fill: #ffffff; stroke: #000000; stroke-linejoin: miter"/>
    </g>
    <g id="text_22">
     <!-- 13.0 -->
     <g transform="translate(315.902063 562.672362) scale(0.07 -0.07)">
      <use xlink:href="#DejaVuSans-31"/>
      <use xlink:href="#DejaVuSans-33" x="63.623047"/>
      <use xlink:href="#DejaVuSans-2e" x="127.246094"/>
      <use xlink:href="#DejaVuSans-30" x="159.033203"/>
     </g>
    </g>
   </g>
   <g id="matplotlib.axis_1">
    <g id="xtick_1">
     <g id="line2d_1">
      <path d="M 152.701754 576.72 
L 152.701754 77.76 
" clip-path="url(#pd2e048e736)" style="fill: none; stroke: #b0b0b0; stroke-width: 0.8; stroke-linecap: square"/>
     </g>
     <g id="line2d_2">
      <defs>
       <path id="m86eecf2844" d="M 0 0 
L 0 3.5 
" style="stroke: #000000; stroke-width: 0.8"/>
      </defs>
      <g>
       <use xlink:href="#m86eecf2844" x="152.701754" y="576.72" style="stroke: #000000; stroke-width: 0.8"/>
      </g>
     </g>
     <g id="text_23">
      <!-- 0.0 -->
      <g transform="translate(144.750192 591.318438) scale(0.1 -0.1)">
       <use xlink:href="#DejaVuSans-30"/>
       <use xlink:href="#DejaVuSans-2e" x="63.623047"/>
       <use xlink:href="#DejaVuSans-30" x="95.410156"/>
      </g>
     </g>
    </g>
    <g id="xtick_2">
     <g id="line2d_3">
      <path d="M 239.719298 576.72 
L 239.719298 77.76 
" clip-path="url(#pd2e048e736)" style="fill: none; stroke: #b0b0b0; stroke-width: 0.8; stroke-linecap: square"/>
     </g>
     <g id="line2d_4">
      <g>
       <use xlink:href="#m86eecf2844" x="239.719298" y="576.72" style="stroke: #000000; stroke-width: 0.8"/>
      </g>
     </g>
     <g id="text_24">
      <!-- 0.5 -->
      <g transform="translate(231.767736 591.318438) scale(0.1 -0.1)">
       <use xlink:href="#DejaVuSans-30"/>
       <use xlink:href="#DejaVuSans-2e" x="63.623047"/>
       <use xlink:href="#DejaVuSans-35" x="95.410156"/>
      </g>
     </g>
    </g>
    <g id="xtick_3">
     <g id="line2d_5">
      <path d="M 326.736842 576.72 
L 326.736842 77.76 
" clip-path="url(#pd2e048e736)" style="fill: none; stroke: #b0b0b0; stroke-width: 0.8; stroke-linecap: square"/>
     </g>
     <g id="line2d_6">
      <g>
       <use xlink:href="#m86eecf2844" x="326.736842" y="576.72" style="stroke: #000000; stroke-width: 0.8"/>
      </g>
     </g>
     <g id="text_25">
      <!-- 1.0 -->
      <g transform="translate(318.78528 591.318438) scale(0.1 -0.1)">
       <use xlink:href="#DejaVuSans-31"/>
       <use xlink:href="#DejaVuSans-2e" x="63.623047"/>
       <use xlink:href="#DejaVuSans-30" x="95.410156"/>
      </g>
     </g>
    </g>
    <g id="xtick_4">
     <g id="line2d_7">
      <path d="M 413.754386 576.72 
L 413.754386 77.76 
" clip-path="url(#pd2e048e736)" style="fill: none; stroke: #b0b0b0; stroke-width: 0.8; stroke-linecap: square"/>
     </g>
     <g id="line2d_8">
      <g>
       <use xlink:href="#m86eecf2844" x="413.754386" y="576.72" style="stroke: #000000; stroke-width: 0.8"/>
      </g>
     </g>
     <g id="text_26">
      <!-- 1.5 -->
      <g transform="translate(405.802823 591.318438) scale(0.1 -0.1)">
       <use xlink:href="#DejaVuSans-31"/>
       <use xlink:href="#DejaVuSans-2e" x="63.623047"/>
       <use xlink:href="#DejaVuSans-35" x="95.410156"/>
      </g>
     </g>
    </g>
    <g id="xtick_5">
     <g id="line2d_9">
      <path d="M 500.77193 576.72 
L 500.77193 77.76 
" clip-path="url(#pd2e048e736)" style="fill: none; stroke: #b0b0b0; stroke-width: 0.8; stroke-linecap: square"/>
     </g>
     <g id="line2d_10">
      <g>
       <use xlink:href="#m86eecf2844" x="500.77193" y="576.72" style="stroke: #000000; stroke-width: 0.8"/>
      </g>
     </g>
     <g id="text_27">
      <!-- 2.0 -->
      <g transform="translate(492.820367 591.318438) scale(0.1 -0.1)">
       <use xlink:href="#DejaVuSans-32"/>
       <use xlink:href="#DejaVuSans-2e" x="63.623047"/>
       <use xlink:href="#DejaVuSans-30" x="95.410156"/>
      </g>
     </g>
    </g>
    <g id="xtick_6">
     <g id="line2d_11">
      <path d="M 587.789474 576.72 
L 587.789474 77.76 
" clip-path="url(#pd2e048e736)" style="fill: none; stroke: #b0b0b0; stroke-width: 0.8; stroke-linecap: square"/>
     </g>
     <g id="line2d_12">
      <g>
       <use xlink:href="#m86eecf2844" x="587.789474" y="576.72" style="stroke: #000000; stroke-width: 0.8"/>
      </g>
     </g>
     <g id="text_28">
      <!-- 2.5 -->
      <g transform="translate(579.837911 591.318438) scale(0.1 -0.1)">
       <use xlink:href="#DejaVuSans-32"/>
       <use xlink:href="#DejaVuSans-2e" x="63.623047"/>
       <use xlink:href="#DejaVuSans-35" x="95.410156"/>
      </g>
     </g>
    </g>
    <g id="xtick_7">
     <g id="line2d_13">
      <path d="M 674.807018 576.72 
L 674.807018 77.76 
" clip-path="url(#pd2e048e736)" style="fill: none; stroke: #b0b0b0; stroke-width: 0.8; stroke-linecap: square"/>
     </g>
     <g id="line2d_14">
      <g>
       <use xlink:href="#m86eecf2844" x="674.807018" y="576.72" style="stroke: #000000; stroke-width: 0.8"/>
      </g>
     </g>
     <g id="text_29">
      <!-- 3.0 -->
      <g transform="translate(666.855455 591.318438) scale(0.1 -0.1)">
       <use xlink:href="#DejaVuSans-33"/>
       <use xlink:href="#DejaVuSans-2e" x="63.623047"/>
       <use xlink:href="#DejaVuSans-30" x="95.410156"/>
      </g>
     </g>
    </g>
    <g id="xtick_8">
     <g id="line2d_15">
      <path d="M 761.824561 576.72 
L 761.824561 77.76 
" clip-path="url(#pd2e048e736)" style="fill: none; stroke: #b0b0b0; stroke-width: 0.8; stroke-linecap: square"/>
     </g>
     <g id="line2d_16">
      <g>
       <use xlink:href="#m86eecf2844" x="761.824561" y="576.72" style="stroke: #000000; stroke-width: 0.8"/>
      </g>
     </g>
     <g id="text_30">
      <!-- 3.5 -->
      <g transform="translate(753.872999 591.318438) scale(0.1 -0.1)">
       <use xlink:href="#DejaVuSans-33"/>
       <use xlink:href="#DejaVuSans-2e" x="63.623047"/>
       <use xlink:href="#DejaVuSans-35" x="95.410156"/>
      </g>
     </g>
    </g>
    <g id="xtick_9">
     <g id="line2d_17">
      <path d="M 848.842105 576.72 
L 848.842105 77.76 
" clip-path="url(#pd2e048e736)" style="fill: none; stroke: #b0b0b0; stroke-width: 0.8; stroke-linecap: square"/>
     </g>
     <g id="line2d_18">
      <g>
       <use xlink:href="#m86eecf2844" x="848.842105" y="576.72" style="stroke: #000000; stroke-width: 0.8"/>
      </g>
     </g>
     <g id="text_31">
      <!-- 4.0 -->
      <g transform="translate(840.890543 591.318438) scale(0.1 -0.1)">
       <use xlink:href="#DejaVuSans-34"/>
       <use xlink:href="#DejaVuSans-2e" x="63.623047"/>
       <use xlink:href="#DejaVuSans-30" x="95.410156"/>
      </g>
     </g>
    </g>
    <g id="xtick_10">
     <g id="line2d_19">
      <path d="M 935.859649 576.72 
L 935.859649 77.76 
" clip-path="url(#pd2e048e736)" style="fill: none; stroke: #b0b0b0; stroke-width: 0.8; stroke-linecap: square"/>
     </g>
     <g id="line2d_20">
      <g>
       <use xlink:href="#m86eecf2844" x="935.859649" y="576.72" style="stroke: #000000; stroke-width: 0.8"/>
      </g>
     </g>
     <g id="text_32">
      <!-- 4.5 -->
      <g transform="translate(927.908087 591.318438) scale(0.1 -0.1)">
       <use xlink:href="#DejaVuSans-34"/>
       <use xlink:href="#DejaVuSans-2e" x="63.623047"/>
       <use xlink:href="#DejaVuSans-35" x="95.410156"/>
      </g>
     </g>
    </g>
    <g id="xtick_11">
     <g id="line2d_21">
      <path d="M 1022.877193 576.72 
L 1022.877193 77.76 
" clip-path="url(#pd2e048e736)" style="fill: none; stroke: #b0b0b0; stroke-width: 0.8; stroke-linecap: square"/>
     </g>
     <g id="line2d_22">
      <g>
       <use xlink:href="#m86eecf2844" x="1022.877193" y="576.72" style="stroke: #000000; stroke-width: 0.8"/>
      </g>
     </g>
     <g id="text_33">
      <!-- 5.0 -->
      <g transform="translate(1014.92563 591.318438) scale(0.1 -0.1)">
       <use xlink:href="#DejaVuSans-35"/>
       <use xlink:href="#DejaVuSans-2e" x="63.623047"/>
       <use xlink:href="#DejaVuSans-30" x="95.410156"/>
      </g>
     </g>
    </g>
    <g id="text_34">
     <!-- Ширина щели $[мм]$ -->
     <g transform="translate(540.15 604.998125) scale(0.1 -0.1)">
      <defs>
       <path id="DejaVuSans-428" d="M 3738 531 
L 5584 531 
L 5584 4666 
L 6216 4666 
L 6216 0 
L 628 0 
L 628 4666 
L 1259 4666 
L 1259 531 
L 3106 531 
L 3106 4666 
L 3738 4666 
L 3738 531 
z
" transform="scale(0.015625)"/>
       <path id="DejaVuSans-438" d="M 3578 3500 
L 3578 0 
L 3006 0 
L 3006 2809 
L 1319 0 
L 581 0 
L 581 3500 
L 1153 3500 
L 1153 697 
L 2838 3500 
L 3578 3500 
z
" transform="scale(0.015625)"/>
       <path id="DejaVuSans-440" d="M 1159 525 
L 1159 -1331 
L 581 -1331 
L 581 3500 
L 1159 3500 
L 1159 2969 
Q 1341 3281 1617 3432 
Q 1894 3584 2278 3584 
Q 2916 3584 3314 3078 
Q 3713 2572 3713 1747 
Q 3713 922 3314 415 
Q 2916 -91 2278 -91 
Q 1894 -91 1617 61 
Q 1341 213 1159 525 
z
M 3116 1747 
Q 3116 2381 2855 2742 
Q 2594 3103 2138 3103 
Q 1681 3103 1420 2742 
Q 1159 2381 1159 1747 
Q 1159 1113 1420 752 
Q 1681 391 2138 391 
Q 2594 391 2855 752 
Q 3116 1113 3116 1747 
z
" transform="scale(0.015625)"/>
       <path id="DejaVuSans-43d" d="M 581 3500 
L 1159 3500 
L 1159 2072 
L 3025 2072 
L 3025 3500 
L 3603 3500 
L 3603 0 
L 3025 0 
L 3025 1613 
L 1159 1613 
L 1159 0 
L 581 0 
L 581 3500 
z
" transform="scale(0.015625)"/>
       <path id="DejaVuSans-430" d="M 2194 1759 
Q 1497 1759 1228 1600 
Q 959 1441 959 1056 
Q 959 750 1161 570 
Q 1363 391 1709 391 
Q 2188 391 2477 730 
Q 2766 1069 2766 1631 
L 2766 1759 
L 2194 1759 
z
M 3341 1997 
L 3341 0 
L 2766 0 
L 2766 531 
Q 2569 213 2275 61 
Q 1981 -91 1556 -91 
Q 1019 -91 701 211 
Q 384 513 384 1019 
Q 384 1609 779 1909 
Q 1175 2209 1959 2209 
L 2766 2209 
L 2766 2266 
Q 2766 2663 2505 2880 
Q 2244 3097 1772 3097 
Q 1472 3097 1187 3025 
Q 903 2953 641 2809 
L 641 3341 
Q 956 3463 1253 3523 
Q 1550 3584 1831 3584 
Q 2591 3584 2966 3190 
Q 3341 2797 3341 1997 
z
" transform="scale(0.015625)"/>
       <path id="DejaVuSans-20" transform="scale(0.015625)"/>
       <path id="DejaVuSans-449" d="M 5275 0 
L 581 0 
L 581 3500 
L 1159 3500 
L 1159 459 
L 2638 459 
L 2638 3500 
L 3216 3500 
L 3216 459 
L 4697 459 
L 4697 3500 
L 5275 3500 
L 5275 459 
L 5734 459 
L 5734 -884 
L 5275 -884 
L 5275 0 
z
" transform="scale(0.015625)"/>
       <path id="DejaVuSans-435" d="M 3597 1894 
L 3597 1613 
L 953 1613 
Q 991 1019 1311 708 
Q 1631 397 2203 397 
Q 2534 397 2845 478 
Q 3156 559 3463 722 
L 3463 178 
Q 3153 47 2828 -22 
Q 2503 -91 2169 -91 
Q 1331 -91 842 396 
Q 353 884 353 1716 
Q 353 2575 817 3079 
Q 1281 3584 2069 3584 
Q 2775 3584 3186 3129 
Q 3597 2675 3597 1894 
z
M 3022 2063 
Q 3016 2534 2758 2815 
Q 2500 3097 2075 3097 
Q 1594 3097 1305 2825 
Q 1016 2553 972 2059 
L 3022 2063 
z
" transform="scale(0.015625)"/>
       <path id="DejaVuSans-43b" d="M 238 0 
L 238 478 
Q 806 566 981 959 
Q 1194 1513 1194 2928 
L 1194 3500 
L 3559 3500 
L 3559 0 
L 2984 0 
L 2984 3041 
L 1769 3041 
L 1769 2694 
Q 1769 1344 1494 738 
Q 1200 91 238 0 
z
" transform="scale(0.015625)"/>
      </defs>
      <use xlink:href="#DejaVuSans-428" transform="translate(0 0.015625)"/>
      <use xlink:href="#DejaVuSans-438" transform="translate(106.933594 0.015625)"/>
      <use xlink:href="#DejaVuSans-440" transform="translate(171.923828 0.015625)"/>
      <use xlink:href="#DejaVuSans-438" transform="translate(235.400391 0.015625)"/>
      <use xlink:href="#DejaVuSans-43d" transform="translate(300.390625 0.015625)"/>
      <use xlink:href="#DejaVuSans-430" transform="translate(365.771484 0.015625)"/>
      <use xlink:href="#DejaVuSans-20" transform="translate(427.050781 0.015625)"/>
      <use xlink:href="#DejaVuSans-449" transform="translate(458.837891 0.015625)"/>
      <use xlink:href="#DejaVuSans-435" transform="translate(553.027344 0.015625)"/>
      <use xlink:href="#DejaVuSans-43b" transform="translate(614.550781 0.015625)"/>
      <use xlink:href="#DejaVuSans-438" transform="translate(678.466797 0.015625)"/>
      <use xlink:href="#DejaVuSans-20" transform="translate(743.457031 0.015625)"/>
      <use xlink:href="#DejaVuSans-5b" transform="translate(775.244141 0.015625)"/>
      <use xlink:href="#DejaVuSans-Oblique-43c" transform="translate(814.257812 0.015625)"/>
      <use xlink:href="#DejaVuSans-Oblique-43c" transform="translate(889.697266 0.015625)"/>
      <use xlink:href="#DejaVuSans-5d" transform="translate(965.136719 0.015625)"/>
     </g>
    </g>
   </g>
   <g id="matplotlib.axis_2">
    <g id="ytick_1">
     <g id="line2d_23">
      <path d="M 144 509.233939 
L 1036.8 509.233939 
" clip-path="url(#pd2e048e736)" style="fill: none; stroke: #b0b0b0; stroke-width: 0.8; stroke-linecap: square"/>
     </g>
     <g id="line2d_24">
      <defs>
       <path id="m4d547d886d" d="M 0 0 
L -3.5 0 
" style="stroke: #000000; stroke-width: 0.8"/>
      </defs>
      <g>
       <use xlink:href="#m4d547d886d" x="144" y="509.233939" style="stroke: #000000; stroke-width: 0.8"/>
      </g>
     </g>
     <g id="text_35">
      <!-- 20 -->
      <g transform="translate(124.275 513.033158) scale(0.1 -0.1)">
       <use xlink:href="#DejaVuSans-32"/>
       <use xlink:href="#DejaVuSans-30" x="63.623047"/>
      </g>
     </g>
    </g>
    <g id="ytick_2">
     <g id="line2d_25">
      <path d="M 144 409.664914 
L 1036.8 409.664914 
" clip-path="url(#pd2e048e736)" style="fill: none; stroke: #b0b0b0; stroke-width: 0.8; stroke-linecap: square"/>
     </g>
     <g id="line2d_26">
      <g>
       <use xlink:href="#m4d547d886d" x="144" y="409.664914" style="stroke: #000000; stroke-width: 0.8"/>
      </g>
     </g>
     <g id="text_36">
      <!-- 40 -->
      <g transform="translate(124.275 413.464133) scale(0.1 -0.1)">
       <use xlink:href="#DejaVuSans-34"/>
       <use xlink:href="#DejaVuSans-30" x="63.623047"/>
      </g>
     </g>
    </g>
    <g id="ytick_3">
     <g id="line2d_27">
      <path d="M 144 310.09589 
L 1036.8 310.09589 
" clip-path="url(#pd2e048e736)" style="fill: none; stroke: #b0b0b0; stroke-width: 0.8; stroke-linecap: square"/>
     </g>
     <g id="line2d_28">
      <g>
       <use xlink:href="#m4d547d886d" x="144" y="310.09589" style="stroke: #000000; stroke-width: 0.8"/>
      </g>
     </g>
     <g id="text_37">
      <!-- 60 -->
      <g transform="translate(124.275 313.895108) scale(0.1 -0.1)">
       <use xlink:href="#DejaVuSans-36"/>
       <use xlink:href="#DejaVuSans-30" x="63.623047"/>
      </g>
     </g>
    </g>
    <g id="ytick_4">
     <g id="line2d_29">
      <path d="M 144 210.526865 
L 1036.8 210.526865 
" clip-path="url(#pd2e048e736)" style="fill: none; stroke: #b0b0b0; stroke-width: 0.8; stroke-linecap: square"/>
     </g>
     <g id="line2d_30">
      <g>
       <use xlink:href="#m4d547d886d" x="144" y="210.526865" style="stroke: #000000; stroke-width: 0.8"/>
      </g>
     </g>
     <g id="text_38">
      <!-- 80 -->
      <g transform="translate(124.275 214.326084) scale(0.1 -0.1)">
       <use xlink:href="#DejaVuSans-38"/>
       <use xlink:href="#DejaVuSans-30" x="63.623047"/>
      </g>
     </g>
    </g>
    <g id="ytick_5">
     <g id="line2d_31">
      <path d="M 144 110.95784 
L 1036.8 110.95784 
" clip-path="url(#pd2e048e736)" style="fill: none; stroke: #b0b0b0; stroke-width: 0.8; stroke-linecap: square"/>
     </g>
     <g id="line2d_32">
      <g>
       <use xlink:href="#m4d547d886d" x="144" y="110.95784" style="stroke: #000000; stroke-width: 0.8"/>
      </g>
     </g>
     <g id="text_39">
      <!-- 100 -->
      <g transform="translate(117.9125 114.757059) scale(0.1 -0.1)">
       <use xlink:href="#DejaVuSans-31"/>
       <use xlink:href="#DejaVuSans-30" x="63.623047"/>
       <use xlink:href="#DejaVuSans-30" x="127.246094"/>
      </g>
     </g>
    </g>
    <g id="text_40">
     <!-- Сила тока $[хз - надо записать было]$ -->
     <g transform="translate(111.832812 421.19) rotate(-90) scale(0.1 -0.1)">
      <defs>
       <path id="DejaVuSans-421" d="M 4122 4306 
L 4122 3641 
Q 3803 3938 3442 4084 
Q 3081 4231 2675 4231 
Q 1875 4231 1450 3742 
Q 1025 3253 1025 2328 
Q 1025 1406 1450 917 
Q 1875 428 2675 428 
Q 3081 428 3442 575 
Q 3803 722 4122 1019 
L 4122 359 
Q 3791 134 3420 21 
Q 3050 -91 2638 -91 
Q 1578 -91 968 557 
Q 359 1206 359 2328 
Q 359 3453 968 4101 
Q 1578 4750 2638 4750 
Q 3056 4750 3426 4639 
Q 3797 4528 4122 4306 
z
" transform="scale(0.015625)"/>
       <path id="DejaVuSans-442" d="M 188 3500 
L 3541 3500 
L 3541 3041 
L 2147 3041 
L 2147 0 
L 1581 0 
L 1581 3041 
L 188 3041 
L 188 3500 
z
" transform="scale(0.015625)"/>
       <path id="DejaVuSans-43e" d="M 1959 3097 
Q 1497 3097 1228 2736 
Q 959 2375 959 1747 
Q 959 1119 1226 758 
Q 1494 397 1959 397 
Q 2419 397 2687 759 
Q 2956 1122 2956 1747 
Q 2956 2369 2687 2733 
Q 2419 3097 1959 3097 
z
M 1959 3584 
Q 2709 3584 3137 3096 
Q 3566 2609 3566 1747 
Q 3566 888 3137 398 
Q 2709 -91 1959 -91 
Q 1206 -91 779 398 
Q 353 888 353 1747 
Q 353 2609 779 3096 
Q 1206 3584 1959 3584 
z
" transform="scale(0.015625)"/>
       <path id="DejaVuSans-43a" d="M 581 3500 
L 1153 3500 
L 1153 1856 
L 2775 3500 
L 3481 3500 
L 2144 2147 
L 3653 0 
L 3009 0 
L 1769 1766 
L 1153 1141 
L 1153 0 
L 581 0 
L 581 3500 
z
" transform="scale(0.015625)"/>
       <path id="DejaVuSans-Oblique-445" d="M 3841 3500 
L 2234 1784 
L 3219 0 
L 2559 0 
L 1819 1388 
L 531 0 
L -166 0 
L 1556 1844 
L 641 3500 
L 1300 3500 
L 1972 2234 
L 3144 3500 
L 3841 3500 
z
" transform="scale(0.015625)"/>
       <path id="DejaVuSans-Oblique-437" d="M 1169 2103 
L 1653 2103 
Q 2016 2103 2278 2256 
Q 2541 2409 2541 2666 
Q 2541 2825 2367 2956 
Q 2194 3088 1897 3088 
Q 1366 3088 763 2916 
L 863 3438 
Q 1506 3588 2044 3588 
Q 2578 3588 2851 3369 
Q 3125 3150 3125 2841 
Q 3125 2431 2825 2166 
Q 2597 1963 2234 1888 
Q 2606 1813 2778 1584 
Q 2903 1419 2903 1197 
Q 2903 1113 2884 1019 
Q 2778 478 2320 193 
Q 1863 -91 1119 -91 
Q 622 -91 91 84 
L 197 619 
Q 597 388 1131 388 
Q 1666 388 1997 583 
Q 2328 778 2328 1125 
Q 2328 1328 2148 1478 
Q 1969 1628 1541 1628 
L 1078 1628 
L 1169 2103 
z
" transform="scale(0.015625)"/>
       <path id="DejaVuSans-2212" d="M 678 2272 
L 4684 2272 
L 4684 1741 
L 678 1741 
L 678 2272 
z
" transform="scale(0.015625)"/>
       <path id="DejaVuSans-Oblique-434" d="M 1219 459 
L 2888 459 
L 3391 3041 
L 2181 3041 
L 2097 2603 
Q 1844 1316 1344 628 
L 1219 459 
z
M 384 459 
Q 694 584 872 850 
Q 1306 1509 1563 2838 
L 1691 3500 
L 4056 3500 
L 3466 459 
L 3925 459 
L 3666 -884 
L 3206 -884 
L 3378 0 
L 541 0 
L 369 -884 
L -91 -884 
L 169 459 
L 384 459 
z
" transform="scale(0.015625)"/>
       <path id="DejaVuSans-Oblique-43f" d="M 3944 3500 
L 3263 0 
L 2684 0 
L 3275 3041 
L 1409 3041 
L 819 0 
L 241 0 
L 922 3500 
L 3944 3500 
z
" transform="scale(0.015625)"/>
       <path id="DejaVuSans-Oblique-441" d="M 3431 3366 
L 3316 2797 
Q 3109 2947 2876 3022 
Q 2644 3097 2394 3097 
Q 2119 3097 1870 3000 
Q 1622 2903 1453 2725 
Q 1184 2453 1037 2087 
Q 891 1722 891 1331 
Q 891 859 1127 628 
Q 1363 397 1844 397 
Q 2081 397 2348 469 
Q 2616 541 2906 684 
L 2797 116 
Q 2547 13 2283 -39 
Q 2019 -91 1741 -91 
Q 1044 -91 669 257 
Q 294 606 294 1253 
Q 294 1797 489 2255 
Q 684 2713 1069 3078 
Q 1331 3328 1684 3456 
Q 2038 3584 2456 3584 
Q 2700 3584 2940 3529 
Q 3181 3475 3431 3366 
z
" transform="scale(0.015625)"/>
       <path id="DejaVuSans-Oblique-44c" d="M 2656 1159 
Q 2656 1613 1950 1613 
L 1131 1613 
L 909 459 
L 1728 459 
Q 2528 459 2644 1038 
Q 2656 1103 2656 1159 
z
M 2066 2072 
Q 3281 2072 3281 1278 
Q 3281 1166 3256 1038 
Q 3053 0 1663 0 
L 241 0 
L 922 3500 
L 1500 3500 
L 1222 2072 
L 2066 2072 
z
" transform="scale(0.015625)"/>
       <path id="DejaVuSans-Oblique-431" d="M 2772 398 
Q 2250 -91 1498 -91 
Q 747 -91 425 384 
Q 203 709 203 1225 
Q 203 1466 250 1747 
L 369 2463 
Q 425 2834 450 2963 
Q 550 3463 800 3831 
Q 1197 4409 1739 4659 
Q 2281 4909 3106 4916 
Q 3488 4919 3666 4972 
L 3738 4516 
Q 3572 4453 3431 4450 
L 2641 4397 
Q 2241 4369 1975 4231 
Q 1284 3866 1131 3388 
L 1075 3213 
Q 1553 3584 2258 3584 
Q 2963 3584 3294 3097 
Q 3519 2772 3519 2278 
Q 3519 2034 3463 1747 
Q 3294 888 2772 398 
z
M 2775 2731 
Q 2578 3097 2117 3097 
Q 1656 3097 1317 2736 
Q 978 2375 856 1747 
Q 809 1506 809 1243 
Q 809 981 931 756 
Q 1128 397 1590 397 
Q 2053 397 2392 759 
Q 2731 1122 2853 1747 
Q 2900 1984 2900 2245 
Q 2900 2506 2775 2731 
z
" transform="scale(0.015625)"/>
       <path id="DejaVuSans-Oblique-44b" d="M 2656 1159 
Q 2656 1613 1950 1613 
L 1131 1613 
L 909 459 
L 1728 459 
Q 2528 459 2644 1038 
Q 2656 1103 2656 1159 
z
M 2066 2072 
Q 3281 2072 3281 1278 
Q 3281 1166 3256 1038 
Q 3053 0 1663 0 
L 241 0 
L 922 3500 
L 1500 3500 
L 1222 2072 
L 2066 2072 
z
M 4213 3500 
L 4788 3500 
L 4104 0 
L 3529 0 
L 4213 3500 
z
" transform="scale(0.015625)"/>
      </defs>
      <use xlink:href="#DejaVuSans-421" transform="translate(0 0.3125)"/>
      <use xlink:href="#DejaVuSans-438" transform="translate(69.824219 0.3125)"/>
      <use xlink:href="#DejaVuSans-43b" transform="translate(134.814453 0.3125)"/>
      <use xlink:href="#DejaVuSans-430" transform="translate(198.730469 0.3125)"/>
      <use xlink:href="#DejaVuSans-20" transform="translate(260.009766 0.3125)"/>
      <use xlink:href="#DejaVuSans-442" transform="translate(291.796875 0.3125)"/>
      <use xlink:href="#DejaVuSans-43e" transform="translate(350.048828 0.3125)"/>
      <use xlink:href="#DejaVuSans-43a" transform="translate(411.230469 0.3125)"/>
      <use xlink:href="#DejaVuSans-430" transform="translate(471.630859 0.3125)"/>
      <use xlink:href="#DejaVuSans-20" transform="translate(532.910156 0.3125)"/>
      <use xlink:href="#DejaVuSans-5b" transform="translate(564.697266 0.3125)"/>
      <use xlink:href="#DejaVuSans-Oblique-445" transform="translate(603.710938 0.3125)"/>
      <use xlink:href="#DejaVuSans-Oblique-437" transform="translate(662.890625 0.3125)"/>
      <use xlink:href="#DejaVuSans-2212" transform="translate(735.546875 0.3125)"/>
      <use xlink:href="#DejaVuSans-Oblique-43d" transform="translate(838.818359 0.3125)"/>
      <use xlink:href="#DejaVuSans-Oblique-430" transform="translate(904.199219 0.3125)"/>
      <use xlink:href="#DejaVuSans-Oblique-434" transform="translate(965.478516 0.3125)"/>
      <use xlink:href="#DejaVuSans-Oblique-43e" transform="translate(1034.619141 0.3125)"/>
      <use xlink:href="#DejaVuSans-Oblique-437" transform="translate(1095.800781 0.3125)"/>
      <use xlink:href="#DejaVuSans-Oblique-430" transform="translate(1148.974609 0.3125)"/>
      <use xlink:href="#DejaVuSans-Oblique-43f" transform="translate(1210.253906 0.3125)"/>
      <use xlink:href="#DejaVuSans-Oblique-438" transform="translate(1275.634766 0.3125)"/>
      <use xlink:href="#DejaVuSans-Oblique-441" transform="translate(1340.625 0.3125)"/>
      <use xlink:href="#DejaVuSans-Oblique-430" transform="translate(1395.605469 0.3125)"/>
      <use xlink:href="#DejaVuSans-Oblique-442" transform="translate(1456.884766 0.3125)"/>
      <use xlink:href="#DejaVuSans-Oblique-44c" transform="translate(1515.136719 0.3125)"/>
      <use xlink:href="#DejaVuSans-Oblique-431" transform="translate(1574.072266 0.3125)"/>
      <use xlink:href="#DejaVuSans-Oblique-44b" transform="translate(1635.742188 0.3125)"/>
      <use xlink:href="#DejaVuSans-Oblique-43b" transform="translate(1714.697266 0.3125)"/>
      <use xlink:href="#DejaVuSans-Oblique-43e" transform="translate(1778.613281 0.3125)"/>
      <use xlink:href="#DejaVuSans-5d" transform="translate(1839.794922 0.3125)"/>
     </g>
    </g>
   </g>
   <g id="line2d_33">
    <path d="M 135.298246 100.44 
L 148.05385 113.869941 
L 160.809455 126.962095 
L 173.56506 139.724958 
L 186.320665 152.166812 
L 199.076269 164.295732 
L 211.831874 176.119587 
L 224.587479 187.646052 
L 237.343083 198.882606 
L 250.098688 209.83654 
L 262.854293 220.514963 
L 276.521012 231.658267 
L 290.187732 242.50155 
L 303.854451 253.052889 
L 317.52117 263.320144 
L 331.18789 273.310964 
L 344.854609 283.032792 
L 358.521328 292.49287 
L 373.099162 302.303051 
L 387.676996 311.831749 
L 402.25483 321.087041 
L 416.832664 330.076772 
L 431.410498 338.808563 
L 445.988332 347.289813 
L 461.477281 356.03466 
L 476.966229 364.513152 
L 492.455178 372.733401 
L 507.944127 380.703273 
L 523.433075 388.430394 
L 539.833138 396.355674 
L 556.233202 404.025593 
L 572.633265 411.448378 
L 589.033328 418.631994 
L 606.344506 425.96374 
L 623.655684 433.04635 
L 640.966862 439.888291 
L 658.278039 446.497739 
L 676.500332 453.212566 
L 694.722624 459.687427 
L 712.944917 465.9309 
L 732.078324 472.246558 
L 751.211731 478.325445 
L 770.345138 484.176438 
L 790.38966 490.070925 
L 810.434182 495.734116 
L 831.389818 501.417268 
L 852.345454 506.867492 
L 873.301091 512.094335 
L 895.167842 517.320169 
L 917.034592 522.322708 
L 939.812458 527.306524 
L 963.501438 532.254731 
L 987.190418 536.9743 
L 1011.790513 541.644712 
L 1036.390608 546.091224 
L 1045.501754 547.683429 
L 1045.501754 547.683429 
" clip-path="url(#pd2e048e736)" style="fill: none; stroke: #ffc0cb; stroke-width: 1.5; stroke-linecap: square"/>
   </g>
   <g id="LineCollection_1">
    <path d="M 149.221053 110.95784 
L 156.182456 110.95784 
" clip-path="url(#pd2e048e736)" style="fill: none; stroke: #800080; stroke-width: 1.5"/>
    <path d="M 199.691228 160.742353 
L 206.652632 160.742353 
" clip-path="url(#pd2e048e736)" style="fill: none; stroke: #800080; stroke-width: 1.5"/>
    <path d="M 243.2 210.526865 
L 250.161404 210.526865 
" clip-path="url(#pd2e048e736)" style="fill: none; stroke: #800080; stroke-width: 1.5"/>
    <path d="M 290.189474 260.311377 
L 297.150877 260.311377 
" clip-path="url(#pd2e048e736)" style="fill: none; stroke: #800080; stroke-width: 1.5"/>
    <path d="M 351.101754 310.09589 
L 358.063158 310.09589 
" clip-path="url(#pd2e048e736)" style="fill: none; stroke: #800080; stroke-width: 1.5"/>
    <path d="M 504.252632 359.880402 
L 511.214035 359.880402 
" clip-path="url(#pd2e048e736)" style="fill: none; stroke: #800080; stroke-width: 1.5"/>
    <path d="M 617.375439 409.664914 
L 624.336842 409.664914 
" clip-path="url(#pd2e048e736)" style="fill: none; stroke: #800080; stroke-width: 1.5"/>
    <path d="M 695.691228 459.449427 
L 702.652632 459.449427 
" clip-path="url(#pd2e048e736)" style="fill: none; stroke: #800080; stroke-width: 1.5"/>
    <path d="M 779.22807 509.233939 
L 786.189474 509.233939 
" clip-path="url(#pd2e048e736)" style="fill: none; stroke: #800080; stroke-width: 1.5"/>
    <path d="M 1024.617544 544.083098 
L 1031.578947 544.083098 
" clip-path="url(#pd2e048e736)" style="fill: none; stroke: #800080; stroke-width: 1.5"/>
   </g>
   <g id="LineCollection_2">
    <path d="M 152.701754 120.914743 
L 152.701754 101.000938 
" clip-path="url(#pd2e048e736)" style="fill: none; stroke: #800080; stroke-width: 1.5"/>
    <path d="M 203.17193 170.699255 
L 203.17193 150.78545 
" clip-path="url(#pd2e048e736)" style="fill: none; stroke: #800080; stroke-width: 1.5"/>
    <path d="M 246.680702 220.483767 
L 246.680702 200.569962 
" clip-path="url(#pd2e048e736)" style="fill: none; stroke: #800080; stroke-width: 1.5"/>
    <path d="M 293.670175 270.26828 
L 293.670175 250.354475 
" clip-path="url(#pd2e048e736)" style="fill: none; stroke: #800080; stroke-width: 1.5"/>
    <path d="M 354.582456 320.052792 
L 354.582456 300.138987 
" clip-path="url(#pd2e048e736)" style="fill: none; stroke: #800080; stroke-width: 1.5"/>
    <path d="M 507.733333 369.837304 
L 507.733333 349.923499 
" clip-path="url(#pd2e048e736)" style="fill: none; stroke: #800080; stroke-width: 1.5"/>
    <path d="M 620.85614 419.621817 
L 620.85614 399.708012 
" clip-path="url(#pd2e048e736)" style="fill: none; stroke: #800080; stroke-width: 1.5"/>
    <path d="M 699.17193 469.406329 
L 699.17193 449.492524 
" clip-path="url(#pd2e048e736)" style="fill: none; stroke: #800080; stroke-width: 1.5"/>
    <path d="M 782.708772 519.190841 
L 782.708772 499.277036 
" clip-path="url(#pd2e048e736)" style="fill: none; stroke: #800080; stroke-width: 1.5"/>
    <path d="M 1028.098246 554.04 
L 1028.098246 534.126195 
" clip-path="url(#pd2e048e736)" style="fill: none; stroke: #800080; stroke-width: 1.5"/>
   </g>
   <g id="line2d_34">
    <defs>
     <path id="m199c0675f5" d="M 3 0 
L -3 -0 
" style="stroke: #800080"/>
    </defs>
    <g clip-path="url(#pd2e048e736)">
     <use xlink:href="#m199c0675f5" x="152.701754" y="110.95784" style="fill: #800080; stroke: #800080"/>
     <use xlink:href="#m199c0675f5" x="203.17193" y="160.742353" style="fill: #800080; stroke: #800080"/>
     <use xlink:href="#m199c0675f5" x="246.680702" y="210.526865" style="fill: #800080; stroke: #800080"/>
     <use xlink:href="#m199c0675f5" x="293.670175" y="260.311377" style="fill: #800080; stroke: #800080"/>
     <use xlink:href="#m199c0675f5" x="354.582456" y="310.09589" style="fill: #800080; stroke: #800080"/>
     <use xlink:href="#m199c0675f5" x="507.733333" y="359.880402" style="fill: #800080; stroke: #800080"/>
     <use xlink:href="#m199c0675f5" x="620.85614" y="409.664914" style="fill: #800080; stroke: #800080"/>
     <use xlink:href="#m199c0675f5" x="699.17193" y="459.449427" style="fill: #800080; stroke: #800080"/>
     <use xlink:href="#m199c0675f5" x="782.708772" y="509.233939" style="fill: #800080; stroke: #800080"/>
     <use xlink:href="#m199c0675f5" x="1028.098246" y="544.083098" style="fill: #800080; stroke: #800080"/>
    </g>
   </g>
   <g id="patch_25">
    <path d="M 144 576.72 
L 144 77.76 
" style="fill: none; stroke: #000000; stroke-width: 0.8; stroke-linejoin: miter; stroke-linecap: square"/>
   </g>
   <g id="patch_26">
    <path d="M 1036.8 576.72 
L 1036.8 77.76 
" style="fill: none; stroke: #000000; stroke-width: 0.8; stroke-linejoin: miter; stroke-linecap: square"/>
   </g>
   <g id="patch_27">
    <path d="M 144 576.72 
L 1036.8 576.72 
" style="fill: none; stroke: #000000; stroke-width: 0.8; stroke-linejoin: miter; stroke-linecap: square"/>
   </g>
   <g id="patch_28">
    <path d="M 144 77.76 
L 1036.8 77.76 
" style="fill: none; stroke: #000000; stroke-width: 0.8; stroke-linejoin: miter; stroke-linecap: square"/>
   </g>
   <g id="text_41">
    <!-- Эксперимент 1 - зависимость интенсивности от размера щели -->
    <g transform="translate(390.39375 71.76) scale(0.12 -0.12)">
     <defs>
      <path id="DejaVuSans-42d" d="M 347 1019 
Q 1006 428 1806 428 
Q 2631 428 3003 872 
Q 3375 1316 3444 2063 
L 950 2063 
L 950 2594 
L 3444 2594 
Q 3375 3341 3003 3786 
Q 2631 4231 1806 4231 
Q 1006 4231 347 3641 
L 347 4306 
Q 997 4750 1844 4750 
Q 2891 4750 3500 4101 
Q 4109 3453 4109 2331 
Q 4109 1206 3500 557 
Q 2891 -91 1844 -91 
Q 1009 -91 347 359 
L 347 1019 
z
" transform="scale(0.015625)"/>
      <path id="DejaVuSans-441" d="M 3122 3366 
L 3122 2828 
Q 2878 2963 2633 3030 
Q 2388 3097 2138 3097 
Q 1578 3097 1268 2742 
Q 959 2388 959 1747 
Q 959 1106 1268 751 
Q 1578 397 2138 397 
Q 2388 397 2633 464 
Q 2878 531 3122 666 
L 3122 134 
Q 2881 22 2623 -34 
Q 2366 -91 2075 -91 
Q 1284 -91 818 406 
Q 353 903 353 1747 
Q 353 2603 823 3093 
Q 1294 3584 2113 3584 
Q 2378 3584 2631 3529 
Q 2884 3475 3122 3366 
z
" transform="scale(0.015625)"/>
      <path id="DejaVuSans-43f" d="M 3603 3500 
L 3603 0 
L 3025 0 
L 3025 3041 
L 1159 3041 
L 1159 0 
L 581 0 
L 581 3500 
L 3603 3500 
z
" transform="scale(0.015625)"/>
      <path id="DejaVuSans-43c" d="M 581 3500 
L 1422 3500 
L 2416 1156 
L 3413 3500 
L 4247 3500 
L 4247 0 
L 3669 0 
L 3669 2950 
L 2703 672 
L 2128 672 
L 1159 2950 
L 1159 0 
L 581 0 
L 581 3500 
z
" transform="scale(0.015625)"/>
      <path id="DejaVuSans-2d" d="M 313 2009 
L 1997 2009 
L 1997 1497 
L 313 1497 
L 313 2009 
z
" transform="scale(0.015625)"/>
      <path id="DejaVuSans-437" d="M 2206 1888 
Q 2594 1813 2809 1584 
Q 3025 1356 3025 1019 
Q 3025 478 2622 193 
Q 2219 -91 1475 -91 
Q 1225 -91 961 -47 
Q 697 -3 416 84 
L 416 619 
Q 638 503 903 445 
Q 1169 388 1459 388 
Q 1931 388 2195 563 
Q 2459 738 2459 1019 
Q 2459 1294 2225 1461 
Q 1991 1628 1563 1628 
L 1100 1628 
L 1100 2103 
L 1584 2103 
Q 1947 2103 2158 2242 
Q 2369 2381 2369 2600 
Q 2369 2800 2151 2944 
Q 1934 3088 1563 3088 
Q 1341 3088 1089 3047 
Q 838 3006 534 2916 
L 534 3438 
Q 841 3513 1106 3550 
Q 1372 3588 1609 3588 
Q 2222 3588 2576 3342 
Q 2931 3097 2931 2656 
Q 2931 2366 2743 2164 
Q 2556 1963 2206 1888 
z
" transform="scale(0.015625)"/>
      <path id="DejaVuSans-432" d="M 1156 1613 
L 1156 459 
L 1975 459 
Q 2369 459 2575 607 
Q 2781 756 2781 1038 
Q 2781 1319 2575 1466 
Q 2369 1613 1975 1613 
L 1156 1613 
z
M 1156 3041 
L 1156 2072 
L 1913 2072 
Q 2238 2072 2444 2201 
Q 2650 2331 2650 2563 
Q 2650 2794 2444 2917 
Q 2238 3041 1913 3041 
L 1156 3041 
z
M 581 3500 
L 1950 3500 
Q 2566 3500 2897 3275 
Q 3228 3050 3228 2634 
Q 3228 2313 3059 2123 
Q 2891 1934 2559 1888 
Q 2956 1813 3175 1575 
Q 3394 1338 3394 981 
Q 3394 513 3033 256 
Q 2672 0 2003 0 
L 581 0 
L 581 3500 
z
" transform="scale(0.015625)"/>
      <path id="DejaVuSans-44c" d="M 2781 1038 
Q 2781 1319 2576 1466 
Q 2372 1613 1978 1613 
L 1159 1613 
L 1159 459 
L 1978 459 
Q 2372 459 2576 607 
Q 2781 756 2781 1038 
z
M 581 3500 
L 1159 3500 
L 1159 2072 
L 2003 2072 
Q 2672 2072 3033 1817 
Q 3394 1563 3394 1038 
Q 3394 513 3033 256 
Q 2672 0 2003 0 
L 581 0 
L 581 3500 
z
" transform="scale(0.015625)"/>
     </defs>
     <use xlink:href="#DejaVuSans-42d"/>
     <use xlink:href="#DejaVuSans-43a" x="69.824219"/>
     <use xlink:href="#DejaVuSans-441" x="130.224609"/>
     <use xlink:href="#DejaVuSans-43f" x="185.205078"/>
     <use xlink:href="#DejaVuSans-435" x="250.585938"/>
     <use xlink:href="#DejaVuSans-440" x="312.109375"/>
     <use xlink:href="#DejaVuSans-438" x="375.585938"/>
     <use xlink:href="#DejaVuSans-43c" x="440.576172"/>
     <use xlink:href="#DejaVuSans-435" x="516.015625"/>
     <use xlink:href="#DejaVuSans-43d" x="577.539062"/>
     <use xlink:href="#DejaVuSans-442" x="642.919922"/>
     <use xlink:href="#DejaVuSans-20" x="701.171875"/>
     <use xlink:href="#DejaVuSans-31" x="732.958984"/>
     <use xlink:href="#DejaVuSans-20" x="796.582031"/>
     <use xlink:href="#DejaVuSans-2d" x="828.369141"/>
     <use xlink:href="#DejaVuSans-20" x="864.453125"/>
     <use xlink:href="#DejaVuSans-437" x="896.240234"/>
     <use xlink:href="#DejaVuSans-430" x="949.414062"/>
     <use xlink:href="#DejaVuSans-432" x="1010.693359"/>
     <use xlink:href="#DejaVuSans-438" x="1069.628906"/>
     <use xlink:href="#DejaVuSans-441" x="1134.619141"/>
     <use xlink:href="#DejaVuSans-438" x="1189.599609"/>
     <use xlink:href="#DejaVuSans-43c" x="1254.589844"/>
     <use xlink:href="#DejaVuSans-43e" x="1330.029297"/>
     <use xlink:href="#DejaVuSans-441" x="1391.210938"/>
     <use xlink:href="#DejaVuSans-442" x="1446.191406"/>
     <use xlink:href="#DejaVuSans-44c" x="1504.443359"/>
     <use xlink:href="#DejaVuSans-20" x="1563.378906"/>
     <use xlink:href="#DejaVuSans-438" x="1595.166016"/>
     <use xlink:href="#DejaVuSans-43d" x="1660.15625"/>
     <use xlink:href="#DejaVuSans-442" x="1725.537109"/>
     <use xlink:href="#DejaVuSans-435" x="1783.789062"/>
     <use xlink:href="#DejaVuSans-43d" x="1845.3125"/>
     <use xlink:href="#DejaVuSans-441" x="1910.693359"/>
     <use xlink:href="#DejaVuSans-438" x="1965.673828"/>
     <use xlink:href="#DejaVuSans-432" x="2030.664062"/>
     <use xlink:href="#DejaVuSans-43d" x="2089.599609"/>
     <use xlink:href="#DejaVuSans-43e" x="2154.980469"/>
     <use xlink:href="#DejaVuSans-441" x="2216.162109"/>
     <use xlink:href="#DejaVuSans-442" x="2271.142578"/>
     <use xlink:href="#DejaVuSans-438" x="2329.394531"/>
     <use xlink:href="#DejaVuSans-20" x="2394.384766"/>
     <use xlink:href="#DejaVuSans-43e" x="2426.171875"/>
     <use xlink:href="#DejaVuSans-442" x="2487.353516"/>
     <use xlink:href="#DejaVuSans-20" x="2545.605469"/>
     <use xlink:href="#DejaVuSans-440" x="2577.392578"/>
     <use xlink:href="#DejaVuSans-430" x="2640.869141"/>
     <use xlink:href="#DejaVuSans-437" x="2702.148438"/>
     <use xlink:href="#DejaVuSans-43c" x="2755.322266"/>
     <use xlink:href="#DejaVuSans-435" x="2830.761719"/>
     <use xlink:href="#DejaVuSans-440" x="2892.285156"/>
     <use xlink:href="#DejaVuSans-430" x="2955.761719"/>
     <use xlink:href="#DejaVuSans-20" x="3017.041016"/>
     <use xlink:href="#DejaVuSans-449" x="3048.828125"/>
     <use xlink:href="#DejaVuSans-435" x="3143.017578"/>
     <use xlink:href="#DejaVuSans-43b" x="3204.541016"/>
     <use xlink:href="#DejaVuSans-438" x="3268.457031"/>
    </g>
   </g>
   <g id="legend_1">
    <g id="patch_29">
     <path d="M 766.5 126.335938 
L 1029.8 126.335938 
Q 1031.8 126.335938 1031.8 124.335938 
L 1031.8 84.76 
Q 1031.8 82.76 1029.8 82.76 
L 766.5 82.76 
Q 764.5 82.76 764.5 84.76 
L 764.5 124.335938 
Q 764.5 126.335938 766.5 126.335938 
z
" style="fill: #ffffff; opacity: 0.8; stroke: #cccccc; stroke-linejoin: miter"/>
    </g>
    <g id="line2d_35">
     <path d="M 768.5 97.508125 
L 778.5 97.508125 
L 788.5 97.508125 
" style="fill: none; stroke: #ffc0cb; stroke-width: 1.5; stroke-linecap: square"/>
    </g>
    <g id="text_42">
     <!-- Аппроксимация $\lambda_{2} \cdot exp(\lambda_{1} x + b_{1}) + b_{2}$ -->
     <g transform="translate(796.5 94.36) scale(0.1 -0.1)">
      <defs>
       <path id="DejaVuSans-410" d="M 2188 4044 
L 1331 1722 
L 3047 1722 
L 2188 4044 
z
M 1831 4666 
L 2547 4666 
L 4325 0 
L 3669 0 
L 3244 1197 
L 1141 1197 
L 716 0 
L 50 0 
L 1831 4666 
z
" transform="scale(0.015625)"/>
       <path id="DejaVuSans-446" d="M 3603 0 
L 581 0 
L 581 3500 
L 1159 3500 
L 1159 459 
L 3025 459 
L 3025 3500 
L 3603 3500 
L 3603 459 
L 4063 459 
L 4063 -884 
L 3603 -884 
L 3603 0 
z
" transform="scale(0.015625)"/>
       <path id="DejaVuSans-44f" d="M 1181 2491 
Q 1181 2231 1381 2084 
Q 1581 1938 1953 1938 
L 2728 1938 
L 2728 3041 
L 1953 3041 
Q 1581 3041 1381 2897 
Q 1181 2753 1181 2491 
z
M 363 0 
L 1431 1534 
Q 1069 1616 828 1830 
Q 588 2044 588 2491 
Q 588 2997 923 3248 
Q 1259 3500 1938 3500 
L 3306 3500 
L 3306 0 
L 2728 0 
L 2728 1478 
L 2013 1478 
L 981 0 
L 363 0 
z
" transform="scale(0.015625)"/>
       <path id="DejaVuSans-Oblique-3bb" d="M 2350 4316 
L 3125 0 
L 2516 0 
L 2038 2588 
L 328 0 
L -281 0 
L 1903 3356 
L 1794 3975 
Q 1725 4369 1391 4369 
L 1091 4369 
L 1184 4863 
L 1550 4856 
Q 2253 4847 2350 4316 
z
" transform="scale(0.015625)"/>
       <path id="DejaVuSans-22c5" d="M 684 2619 
L 1344 2619 
L 1344 1825 
L 684 1825 
L 684 2619 
z
" transform="scale(0.015625)"/>
       <path id="DejaVuSans-Oblique-65" d="M 3078 2063 
Q 3088 2113 3092 2166 
Q 3097 2219 3097 2272 
Q 3097 2653 2873 2875 
Q 2650 3097 2266 3097 
Q 1838 3097 1509 2826 
Q 1181 2556 1013 2059 
L 3078 2063 
z
M 3578 1613 
L 903 1613 
Q 884 1494 878 1425 
Q 872 1356 872 1306 
Q 872 872 1139 634 
Q 1406 397 1894 397 
Q 2269 397 2603 481 
Q 2938 566 3225 728 
L 3116 159 
Q 2806 34 2476 -28 
Q 2147 -91 1806 -91 
Q 1078 -91 686 257 
Q 294 606 294 1247 
Q 294 1794 489 2264 
Q 684 2734 1063 3103 
Q 1306 3334 1642 3459 
Q 1978 3584 2356 3584 
Q 2950 3584 3301 3228 
Q 3653 2872 3653 2272 
Q 3653 2128 3634 1964 
Q 3616 1800 3578 1613 
z
" transform="scale(0.015625)"/>
       <path id="DejaVuSans-Oblique-78" d="M 3841 3500 
L 2234 1784 
L 3219 0 
L 2559 0 
L 1819 1388 
L 531 0 
L -166 0 
L 1556 1844 
L 641 3500 
L 1300 3500 
L 1972 2234 
L 3144 3500 
L 3841 3500 
z
" transform="scale(0.015625)"/>
       <path id="DejaVuSans-Oblique-70" d="M 3175 2156 
Q 3175 2616 2975 2859 
Q 2775 3103 2400 3103 
Q 2144 3103 1911 2972 
Q 1678 2841 1497 2591 
Q 1319 2344 1212 1994 
Q 1106 1644 1106 1300 
Q 1106 863 1306 627 
Q 1506 391 1875 391 
Q 2147 391 2380 519 
Q 2613 647 2778 891 
Q 2956 1147 3065 1494 
Q 3175 1841 3175 2156 
z
M 1394 2969 
Q 1625 3272 1939 3428 
Q 2253 3584 2638 3584 
Q 3175 3584 3472 3232 
Q 3769 2881 3769 2247 
Q 3769 1728 3584 1258 
Q 3400 788 3053 416 
Q 2822 169 2531 39 
Q 2241 -91 1919 -91 
Q 1547 -91 1294 64 
Q 1041 219 916 525 
L 556 -1331 
L -19 -1331 
L 922 3500 
L 1497 3500 
L 1394 2969 
z
" transform="scale(0.015625)"/>
       <path id="DejaVuSans-28" d="M 1984 4856 
Q 1566 4138 1362 3434 
Q 1159 2731 1159 2009 
Q 1159 1288 1364 580 
Q 1569 -128 1984 -844 
L 1484 -844 
Q 1016 -109 783 600 
Q 550 1309 550 2009 
Q 550 2706 781 3412 
Q 1013 4119 1484 4856 
L 1984 4856 
z
" transform="scale(0.015625)"/>
       <path id="DejaVuSans-2b" d="M 2944 4013 
L 2944 2272 
L 4684 2272 
L 4684 1741 
L 2944 1741 
L 2944 0 
L 2419 0 
L 2419 1741 
L 678 1741 
L 678 2272 
L 2419 2272 
L 2419 4013 
L 2944 4013 
z
" transform="scale(0.015625)"/>
       <path id="DejaVuSans-Oblique-62" d="M 3169 2138 
Q 3169 2591 2961 2847 
Q 2753 3103 2388 3103 
Q 2122 3103 1889 2973 
Q 1656 2844 1484 2597 
Q 1303 2338 1198 1995 
Q 1094 1653 1094 1313 
Q 1094 881 1298 636 
Q 1503 391 1863 391 
Q 2134 391 2365 517 
Q 2597 644 2772 891 
Q 2950 1147 3059 1487 
Q 3169 1828 3169 2138 
z
M 1381 2969 
Q 1594 3256 1914 3420 
Q 2234 3584 2584 3584 
Q 3122 3584 3439 3221 
Q 3756 2859 3756 2241 
Q 3756 1734 3570 1259 
Q 3384 784 3041 416 
Q 2816 172 2522 40 
Q 2228 -91 1906 -91 
Q 1566 -91 1316 65 
Q 1066 222 909 531 
L 806 0 
L 231 0 
L 1178 4863 
L 1753 4863 
L 1381 2969 
z
" transform="scale(0.015625)"/>
       <path id="DejaVuSans-29" d="M 513 4856 
L 1013 4856 
Q 1481 4119 1714 3412 
Q 1947 2706 1947 2009 
Q 1947 1309 1714 600 
Q 1481 -109 1013 -844 
L 513 -844 
Q 928 -128 1133 580 
Q 1338 1288 1338 2009 
Q 1338 2731 1133 3434 
Q 928 4138 513 4856 
z
" transform="scale(0.015625)"/>
      </defs>
      <use xlink:href="#DejaVuSans-410" transform="translate(0 0.015625)"/>
      <use xlink:href="#DejaVuSans-43f" transform="translate(68.408203 0.015625)"/>
      <use xlink:href="#DejaVuSans-43f" transform="translate(133.789062 0.015625)"/>
      <use xlink:href="#DejaVuSans-440" transform="translate(199.169922 0.015625)"/>
      <use xlink:href="#DejaVuSans-43e" transform="translate(262.646484 0.015625)"/>
      <use xlink:href="#DejaVuSans-43a" transform="translate(323.828125 0.015625)"/>
      <use xlink:href="#DejaVuSans-441" transform="translate(384.228516 0.015625)"/>
      <use xlink:href="#DejaVuSans-438" transform="translate(439.208984 0.015625)"/>
      <use xlink:href="#DejaVuSans-43c" transform="translate(504.199219 0.015625)"/>
      <use xlink:href="#DejaVuSans-430" transform="translate(579.638672 0.015625)"/>
      <use xlink:href="#DejaVuSans-446" transform="translate(640.917969 0.015625)"/>
      <use xlink:href="#DejaVuSans-438" transform="translate(708.984375 0.015625)"/>
      <use xlink:href="#DejaVuSans-44f" transform="translate(773.974609 0.015625)"/>
      <use xlink:href="#DejaVuSans-20" transform="translate(834.130859 0.015625)"/>
      <use xlink:href="#DejaVuSans-Oblique-3bb" transform="translate(865.917969 0.015625)"/>
      <use xlink:href="#DejaVuSans-32" transform="translate(925.097656 -16.390625) scale(0.7)"/>
      <use xlink:href="#DejaVuSans-22c5" transform="translate(991.850586 0.015625)"/>
      <use xlink:href="#DejaVuSans-Oblique-65" transform="translate(1043.120117 0.015625)"/>
      <use xlink:href="#DejaVuSans-Oblique-78" transform="translate(1104.643555 0.015625)"/>
      <use xlink:href="#DejaVuSans-Oblique-70" transform="translate(1163.823242 0.015625)"/>
      <use xlink:href="#DejaVuSans-28" transform="translate(1227.299805 0.015625)"/>
      <use xlink:href="#DejaVuSans-Oblique-3bb" transform="translate(1266.313477 0.015625)"/>
      <use xlink:href="#DejaVuSans-31" transform="translate(1325.493164 -16.390625) scale(0.7)"/>
      <use xlink:href="#DejaVuSans-Oblique-78" transform="translate(1372.763672 0.015625)"/>
      <use xlink:href="#DejaVuSans-2b" transform="translate(1451.425781 0.015625)"/>
      <use xlink:href="#DejaVuSans-Oblique-62" transform="translate(1554.697266 0.015625)"/>
      <use xlink:href="#DejaVuSans-31" transform="translate(1618.173828 -16.390625) scale(0.7)"/>
      <use xlink:href="#DejaVuSans-29" transform="translate(1665.444336 0.015625)"/>
      <use xlink:href="#DejaVuSans-2b" transform="translate(1723.94043 0.015625)"/>
      <use xlink:href="#DejaVuSans-Oblique-62" transform="translate(1827.211914 0.015625)"/>
      <use xlink:href="#DejaVuSans-32" transform="translate(1890.688477 -16.390625) scale(0.7)"/>
     </g>
     <!-- $ b_2 = -5.14, \ \lambda_1 = -0.35, \ b_1 = 2.41, \ \lambda_2 = 9.34$ -->
     <g transform="translate(796.5 105.578125) scale(0.1 -0.1)">
      <defs>
       <path id="DejaVuSans-3d" d="M 678 2906 
L 4684 2906 
L 4684 2381 
L 678 2381 
L 678 2906 
z
M 678 1631 
L 4684 1631 
L 4684 1100 
L 678 1100 
L 678 1631 
z
" transform="scale(0.015625)"/>
       <path id="DejaVuSans-2c" d="M 750 794 
L 1409 794 
L 1409 256 
L 897 -744 
L 494 -744 
L 750 256 
L 750 794 
z
" transform="scale(0.015625)"/>
      </defs>
      <use xlink:href="#DejaVuSans-Oblique-62" transform="translate(0 0.015625)"/>
      <use xlink:href="#DejaVuSans-32" transform="translate(63.476562 -16.390625) scale(0.7)"/>
      <use xlink:href="#DejaVuSans-3d" transform="translate(130.229492 0.015625)"/>
      <use xlink:href="#DejaVuSans-2212" transform="translate(252.983398 0.015625)"/>
      <use xlink:href="#DejaVuSans-35" transform="translate(356.254883 0.015625)"/>
      <use xlink:href="#DejaVuSans-2e" transform="translate(419.87793 0.015625)"/>
      <use xlink:href="#DejaVuSans-31" transform="translate(451.665039 0.015625)"/>
      <use xlink:href="#DejaVuSans-34" transform="translate(515.288086 0.015625)"/>
      <use xlink:href="#DejaVuSans-2c" transform="translate(578.911133 0.015625)"/>
      <use xlink:href="#DejaVuSans-Oblique-3bb" transform="translate(662.651042 0.015625)"/>
      <use xlink:href="#DejaVuSans-31" transform="translate(721.83073 -16.390625) scale(0.7)"/>
      <use xlink:href="#DejaVuSans-3d" transform="translate(788.58366 0.015625)"/>
      <use xlink:href="#DejaVuSans-2212" transform="translate(911.337566 0.015625)"/>
      <use xlink:href="#DejaVuSans-30" transform="translate(1014.60905 0.015625)"/>
      <use xlink:href="#DejaVuSans-2e" transform="translate(1078.232097 0.015625)"/>
      <use xlink:href="#DejaVuSans-33" transform="translate(1110.019207 0.015625)"/>
      <use xlink:href="#DejaVuSans-35" transform="translate(1173.642253 0.015625)"/>
      <use xlink:href="#DejaVuSans-2c" transform="translate(1237.2653 0.015625)"/>
      <use xlink:href="#DejaVuSans-Oblique-62" transform="translate(1321.00521 0.015625)"/>
      <use xlink:href="#DejaVuSans-31" transform="translate(1384.481772 -16.390625) scale(0.7)"/>
      <use xlink:href="#DejaVuSans-3d" transform="translate(1451.234702 0.015625)"/>
      <use xlink:href="#DejaVuSans-32" transform="translate(1554.506187 0.015625)"/>
      <use xlink:href="#DejaVuSans-2e" transform="translate(1618.129233 0.015625)"/>
      <use xlink:href="#DejaVuSans-34" transform="translate(1649.916343 0.015625)"/>
      <use xlink:href="#DejaVuSans-31" transform="translate(1713.53939 0.015625)"/>
      <use xlink:href="#DejaVuSans-2c" transform="translate(1777.162437 0.015625)"/>
      <use xlink:href="#DejaVuSans-Oblique-3bb" transform="translate(1860.902346 0.015625)"/>
      <use xlink:href="#DejaVuSans-32" transform="translate(1920.082034 -16.390625) scale(0.7)"/>
      <use xlink:href="#DejaVuSans-3d" transform="translate(1986.834963 0.015625)"/>
      <use xlink:href="#DejaVuSans-39" transform="translate(2090.106448 0.015625)"/>
      <use xlink:href="#DejaVuSans-2e" transform="translate(2153.729495 0.015625)"/>
      <use xlink:href="#DejaVuSans-33" transform="translate(2185.516604 0.015625)"/>
      <use xlink:href="#DejaVuSans-34" transform="translate(2249.139651 0.015625)"/>
     </g>
    </g>
    <g id="LineCollection_3">
     <path d="M 773.5 116.75625 
L 783.5 116.75625 
" style="fill: none; stroke: #800080; stroke-width: 1.5"/>
    </g>
    <g id="LineCollection_4">
     <path d="M 778.5 121.75625 
L 778.5 111.75625 
" style="fill: none; stroke: #800080; stroke-width: 1.5"/>
    </g>
    <g id="line2d_36"/>
    <g id="line2d_37">
     <g>
      <use xlink:href="#m199c0675f5" x="778.5" y="116.75625" style="fill: #800080; stroke: #800080"/>
     </g>
    </g>
    <g id="text_43">
     <!-- Экспериментальные данные -->
     <g transform="translate(796.5 120.25625) scale(0.1 -0.1)">
      <defs>
       <path id="DejaVuSans-44b" d="M 3907 3500 
L 4482 3500 
L 4482 0 
L 3907 0 
L 3907 3500 
z
M 4195 3584 
L 4195 3584 
z
M 2781 1038 
Q 2781 1319 2576 1466 
Q 2372 1613 1978 1613 
L 1159 1613 
L 1159 459 
L 1978 459 
Q 2372 459 2576 607 
Q 2781 756 2781 1038 
z
M 581 3500 
L 1159 3500 
L 1159 2072 
L 2003 2072 
Q 2672 2072 3033 1817 
Q 3394 1563 3394 1038 
Q 3394 513 3033 256 
Q 2672 0 2003 0 
L 581 0 
L 581 3500 
z
" transform="scale(0.015625)"/>
       <path id="DejaVuSans-434" d="M 1384 459 
L 3053 459 
L 3053 3041 
L 1844 3041 
L 1844 2603 
Q 1844 1316 1475 628 
L 1384 459 
z
M 550 459 
Q 834 584 959 850 
Q 1266 1509 1266 2838 
L 1266 3500 
L 3631 3500 
L 3631 459 
L 4091 459 
L 4091 -884 
L 3631 -884 
L 3631 0 
L 794 0 
L 794 -884 
L 334 -884 
L 334 459 
L 550 459 
z
" transform="scale(0.015625)"/>
      </defs>
      <use xlink:href="#DejaVuSans-42d"/>
      <use xlink:href="#DejaVuSans-43a" x="69.824219"/>
      <use xlink:href="#DejaVuSans-441" x="130.224609"/>
      <use xlink:href="#DejaVuSans-43f" x="185.205078"/>
      <use xlink:href="#DejaVuSans-435" x="250.585938"/>
      <use xlink:href="#DejaVuSans-440" x="312.109375"/>
      <use xlink:href="#DejaVuSans-438" x="375.585938"/>
      <use xlink:href="#DejaVuSans-43c" x="440.576172"/>
      <use xlink:href="#DejaVuSans-435" x="516.015625"/>
      <use xlink:href="#DejaVuSans-43d" x="577.539062"/>
      <use xlink:href="#DejaVuSans-442" x="642.919922"/>
      <use xlink:href="#DejaVuSans-430" x="701.171875"/>
      <use xlink:href="#DejaVuSans-43b" x="762.451172"/>
      <use xlink:href="#DejaVuSans-44c" x="826.367188"/>
      <use xlink:href="#DejaVuSans-43d" x="885.302734"/>
      <use xlink:href="#DejaVuSans-44b" x="950.683594"/>
      <use xlink:href="#DejaVuSans-435" x="1029.638672"/>
      <use xlink:href="#DejaVuSans-20" x="1091.162109"/>
      <use xlink:href="#DejaVuSans-434" x="1122.949219"/>
      <use xlink:href="#DejaVuSans-430" x="1192.089844"/>
      <use xlink:href="#DejaVuSans-43d" x="1253.369141"/>
      <use xlink:href="#DejaVuSans-43d" x="1318.75"/>
      <use xlink:href="#DejaVuSans-44b" x="1384.130859"/>
      <use xlink:href="#DejaVuSans-435" x="1463.085938"/>
     </g>
    </g>
   </g>
  </g>
 </g>
 <defs>
  <clipPath id="pd2e048e736">
   <rect x="144" y="77.76" width="892.8" height="498.96"/>
  </clipPath>
 </defs>
</svg>
